<svg width="30" height="32" viewBox="0 0 30 32" fill="none" xmlns="http://www.w3.org/2000/svg">
<path d="M27.0977 22.2653C26.9552 22.1512 26.806 22.0326 26.6678 21.9163C25.9309 21.3003 25.148 20.7323 24.3913 20.1825C24.2334 20.0685 24.0777 19.9544 23.9198 19.8404C22.9504 19.1309 22.0775 18.7864 21.2529 18.7864C20.1431 18.7864 19.1759 19.4252 18.3776 20.6821C18.0245 21.2387 17.5946 21.5102 17.0661 21.5102C16.7524 21.5102 16.3971 21.4167 16.0089 21.2342C12.8771 19.7582 10.6422 17.493 9.36359 14.5046C8.74511 13.0606 8.94688 12.1162 10.0325 11.3474C10.651 10.9117 11.8002 10.0996 11.7191 8.54609C11.627 6.78044 7.88318 1.46978 6.30409 0.867541C5.63517 0.612046 4.93335 0.609766 4.21398 0.860699C2.40021 1.49488 1.09965 2.6081 0.450466 4.08177C-0.176786 5.50524 -0.148275 7.17509 0.531614 8.91337C2.4989 13.9389 5.26671 18.3188 8.75607 21.9345C12.1709 25.4727 16.3686 28.3721 21.2331 30.5506C21.6718 30.7468 22.1323 30.854 22.4679 30.9316C22.5819 30.959 22.6806 30.9818 22.753 31.0023C22.7925 31.0137 22.8342 31.0206 22.8736 31.0206H22.9131C25.2006 31.0206 27.9465 28.8466 28.7909 26.3669C29.5322 24.1997 28.1811 23.1276 27.0977 22.2653Z" fill="white"/>
</svg>
