<svg width="30" height="21" viewBox="0 0 30 21" fill="none" xmlns="http://www.w3.org/2000/svg">
<path d="M8.31568 12.2486C7.93187 15.9332 5.16841 17.8522 0.562654 18.4663L0.562654 20.9995C9.00655 20.4622 13.6123 15.8564 13.6123 8.87101C13.6123 4.18849 11.0791 0.887695 6.93396 0.887695C3.47964 0.887695 0.792943 3.19057 0.792943 6.72165C0.792942 9.94568 2.78877 11.7112 5.32194 12.2486L8.31568 12.2486Z" fill="black"/>
<path d="M24.5061 12.2486C24.1223 15.9332 21.3588 17.8522 16.7531 18.4663L16.7531 20.9995C25.197 20.4622 29.8027 15.8564 29.8027 8.87101C29.8027 4.18849 27.2696 0.887695 23.1244 0.887695C19.6701 0.887695 16.9834 3.19057 16.9834 6.72165C16.9834 9.94568 18.9792 11.7112 21.5124 12.2486L24.5061 12.2486Z" fill="black" fill-opacity="0.5"/>
</svg>
