<svg width="12" height="11" viewBox="0 0 12 11" fill="none" xmlns="http://www.w3.org/2000/svg">
<path d="M5.28671 1.19529C5.51122 0.504304 6.48878 0.504305 6.71329 1.19529L7.40321 3.31864C7.50362 3.62766 7.79159 3.83688 8.1165 3.83688H10.3491C11.0757 3.83688 11.3778 4.76659 10.79 5.19364L8.98374 6.50595C8.72087 6.69693 8.61088 7.03546 8.71128 7.34448L9.4012 9.46783C9.62572 10.1588 8.83486 10.7334 8.24707 10.3064L6.44084 8.99405C6.17797 8.80307 5.82203 8.80307 5.55916 8.99405L3.75293 10.3064C3.16514 10.7334 2.37428 10.1588 2.5988 9.46783L3.28872 7.34447C3.38912 7.03546 3.27913 6.69693 3.01626 6.50595L1.21003 5.19364C0.622242 4.76659 0.924324 3.83688 1.65087 3.83688H3.88349C4.20841 3.83688 4.49638 3.62766 4.59679 3.31864L5.28671 1.19529Z" fill="#E16259"/>
</svg>
