<svg width="35" height="35" viewBox="0 0 35 35" fill="none" xmlns="http://www.w3.org/2000/svg">
<path d="M34.1058 1.47005C33.5553 0.721811 32.7022 0.295227 31.7657 0.295227C31.1604 0.295227 30.5331 0.470879 29.8993 0.815341L2.97363 15.4995C1.05898 16.5443 0.927392 18.1183 0.958096 18.7456C0.988801 19.3775 1.28049 20.9265 3.28945 21.7545L6.73055 23.1712C7.38411 23.4404 8.11225 23.5795 8.8996 23.5795C9.02461 23.5795 9.14304 23.5613 9.26586 23.5567C9.2198 23.6206 9.16278 23.6685 9.11892 23.7346C8.47851 24.7315 8.44561 26.0843 9.0268 27.542C9.03558 27.5671 9.04435 27.5876 9.05312 27.6081C10.0708 29.9532 11.2024 32.5994 11.3384 32.969C11.6762 33.8837 12.5359 34.5133 13.4768 34.5133C14.9287 34.5133 15.3607 33.7856 17.7359 29.7616C17.9201 29.4673 18.3325 28.7807 18.4026 27.9092C18.6812 28.0256 18.9422 28.1351 19.1637 28.2286L22.9754 29.8437C23.7387 30.1676 24.4098 30.4551 24.7607 30.6056C24.8703 30.6763 24.9844 30.7356 25.105 30.7858C25.3748 30.8976 25.6599 30.9524 25.9472 30.9524C27.682 30.9524 28.0965 29.3897 28.3202 28.5525C28.4299 28.1396 28.5834 27.5648 28.7457 26.9329L34.5598 4.70936C35.0028 3.03267 34.4633 1.96051 34.1058 1.47005ZM15.8169 28.4978C15.8169 28.4978 13.6588 32.15 13.4768 32.15C13.4724 32.15 13.4702 32.1477 13.4658 32.1432C13.2531 31.5523 11.1235 26.6386 11.1235 26.6386C10.7309 25.6531 10.8011 24.8091 11.4766 24.8091C11.6257 24.8091 11.8034 24.8501 12.0095 24.9391L13.6654 25.8333C13.9417 26.0295 14.2444 26.2006 14.5755 26.3352L14.6589 26.3671L14.8146 26.4493C16.0932 27.1542 16.499 27.4096 15.8169 28.4978ZM32.371 4.08887L26.5591 26.3124C26.2301 27.5648 25.9582 28.589 25.9516 28.589C25.9472 28.5868 25.9406 28.5617 25.9406 28.5594C25.9406 28.5525 24.9932 28.1488 23.8352 27.656L20.0212 26.0409C18.8632 25.5527 16.9639 24.7635 15.7993 24.2958L15.6063 24.216L14.8936 23.8304C14.1874 23.267 14.1259 22.3385 14.8343 21.5515L26.6358 8.4072C27.1096 7.88024 27.2894 7.60877 27.1863 7.60877C27.1052 7.60877 26.842 7.78443 26.4034 8.1403L11.47 20.3927C10.8186 20.9219 9.82951 21.2162 8.89741 21.2162C8.42149 21.2162 7.95873 21.1363 7.56395 20.9744L4.12505 19.56C2.96266 19.081 2.9188 18.1981 4.02416 17.5913L30.952 2.90493C31.2635 2.73612 31.5354 2.65628 31.7613 2.65628C32.3425 2.65856 32.6079 3.18552 32.371 4.08887Z" fill="white"/>
</svg>
