<svg width="33" height="36" viewBox="0 0 33 36" fill="none" xmlns="http://www.w3.org/2000/svg">
<path d="M32.8977 17.6753C32.8977 27.2742 25.6668 35.0538 16.7471 35.0538C13.9157 35.0538 11.2554 34.2689 8.9416 32.8919L0 35.9718L2.91474 26.6487C1.44311 24.0302 0.596545 20.9598 0.596545 17.6753C0.596545 8.07872 7.82747 0.296814 16.7471 0.296814C25.669 0.296814 32.8977 8.07872 32.8977 17.6753ZM16.7471 3.06519C9.25961 3.06519 3.16915 9.61987 3.16915 17.6753C3.16915 20.8718 4.12976 23.8328 5.75491 26.242L4.05739 31.667L9.27497 29.869C11.4177 31.3959 13.9881 32.2854 16.7449 32.2854C24.2303 32.2854 30.3229 25.7307 30.3229 17.6753C30.3229 9.61987 24.2347 3.06519 16.7471 3.06519ZM24.9036 21.678C24.8049 21.4996 24.5395 21.3926 24.1447 21.1809C23.7478 20.9693 21.8024 19.9371 21.4405 19.7968C21.0765 19.6541 20.8133 19.5827 20.5501 20.0084C20.2869 20.4342 19.5281 21.395 19.2956 21.678C19.0653 21.9634 18.835 21.9991 18.4381 21.785C18.0433 21.571 16.7669 21.1215 15.2558 19.6707C14.0802 18.541 13.2841 17.1473 13.0538 16.7216C12.8235 16.2959 13.0297 16.0652 13.2271 15.8535C13.4047 15.6632 13.624 15.3564 13.8214 15.1067C14.0188 14.857 14.0868 14.681 14.2162 14.3956C14.3478 14.1102 14.282 13.8628 14.1833 13.6488C14.0846 13.4371 13.2929 11.3394 12.9617 10.4856C12.6327 9.63414 12.3016 9.77447 12.0713 9.77447C11.841 9.77447 11.5756 9.73879 11.3124 9.73879C11.0492 9.73879 10.6194 9.84582 10.2575 10.2715C9.89564 10.6973 8.87142 11.7295 8.87142 13.8248C8.87142 15.9201 10.2904 17.9464 10.4878 18.2294C10.6852 18.5125 13.2249 22.9552 17.2494 24.6604C21.2739 26.3657 21.2739 25.7973 21.9998 25.7259C22.7257 25.6546 24.3421 24.6961 24.6733 23.702C25.0001 22.7078 25.0001 21.8564 24.9036 21.678Z" fill="white"/>
</svg>
