<?xml version="1.0" encoding="utf-8"?>
<!-- Generator: Adobe Illustrator 22.0.0, SVG Export Plug-In . SVG Version: 6.00 Build 0)  -->
<svg version="1.1" id="Layer_1" xmlns="http://www.w3.org/2000/svg" xmlns:xlink="http://www.w3.org/1999/xlink" x="0px" y="0px"
	 viewBox="0 0 33 34.1" style="enable-background:new 0 0 33 34.1;" xml:space="preserve">
<style type="text/css">
	.st0{fill:#FFFFFF;}
</style>
<path class="st0" d="M32.9,16.5c0,9.1-7.2,16.5-16.2,16.5c-2.8,0-5.5-0.7-7.8-2L0,33.8L2.9,25c-1.5-2.5-2.3-5.4-2.3-8.5
	C0.6,7.4,7.8,0,16.7,0C25.7,0,32.9,7.4,32.9,16.5z M16.7,2.6C9.3,2.6,3.2,8.8,3.2,16.5c0,3,1,5.8,2.6,8.1l-1.7,5.1L9.3,28
	c2.1,1.4,4.7,2.3,7.5,2.3c7.5,0,13.6-6.2,13.6-13.9C30.3,8.8,24.2,2.6,16.7,2.6z M24.9,20.3c-0.1-0.2-0.4-0.3-0.8-0.5
	s-2.3-1.2-2.7-1.3c-0.4-0.1-0.6-0.2-0.9,0.2c-0.3,0.4-1,1.3-1.3,1.6c-0.2,0.3-0.5,0.3-0.9,0.1c-0.4-0.2-1.7-0.6-3.2-2
	c-1.2-1.1-2-2.4-2.2-2.8c-0.2-0.4,0-0.6,0.2-0.8s0.4-0.5,0.6-0.7c0.2-0.2,0.3-0.4,0.4-0.7c0.1-0.3,0.1-0.5,0-0.7s-0.9-2.2-1.2-3
	C12.6,8.9,12.3,9,12.1,9s-0.5,0-0.8,0s-0.7,0.1-1.1,0.5c-0.4,0.4-1.4,1.4-1.4,3.4s1.4,3.9,1.6,4.2s2.7,4.5,6.8,6.1
	c4,1.6,4,1.1,4.8,1c0.7-0.1,2.3-1,2.7-1.9C25,21.3,25,20.4,24.9,20.3z"/>
</svg>
