<svg width="167" height="51" viewBox="0 0 167 51" fill="none" xmlns="http://www.w3.org/2000/svg">
<path d="M16.2 1H107.2C115.5 1 122.2 7.7 122.2 16C122.2 24.3 115.5 31 107.2 31H16.2C7.90001 31 1.20001 24.3 1.20001 16C1.20001 7.7 8.00001 1 16.2 1Z" fill="#F4D256"/>
<path d="M132.6 3.5L159.5 19C161.8 20.3 161.4 23.8 158.8 24.6L129 33.2C126.4 33.9 124.2 31.3 125.4 28.9L130.1 19.4C130.4 18.8 130.5 18.1 130.3 17.4L128 6.8C127.5 4.2 130.2 2.2 132.6 3.5Z" fill="#F4D256"/>
<path d="M18.4658 16.7113C18.2791 17.1406 18.0831 17.5466 17.8778 17.9293C17.6818 18.3026 17.4438 18.6293 17.1638 18.9093C16.8931 19.1893 16.5618 19.4086 16.1698 19.5673C15.7871 19.726 15.3111 19.8053 14.7418 19.8053C14.6298 19.8053 14.5131 19.796 14.3918 19.7773C14.2705 19.768 14.1538 19.7493 14.0418 19.7213C13.9298 19.7026 13.8318 19.6793 13.7478 19.6513C13.6638 19.6233 13.6031 19.5953 13.5658 19.5673L13.8038 18.4193C13.9251 18.466 14.0698 18.5126 14.2378 18.5593C14.4151 18.606 14.5971 18.6293 14.7838 18.6293C15.0638 18.6293 15.3065 18.5966 15.5118 18.5313C15.7265 18.4566 15.9178 18.3586 16.0858 18.2373C16.2538 18.1066 16.4031 17.9526 16.5338 17.7753C16.6645 17.5886 16.7905 17.3833 16.9118 17.1593C16.5011 16.4966 16.1138 15.8386 15.7498 15.1853C15.3858 14.5226 15.0498 13.8833 14.7418 13.2673C14.4338 12.6513 14.1538 12.068 13.9018 11.5173C13.6498 10.9573 13.4258 10.444 13.2298 9.97729H14.7698C15.0778 10.7893 15.4698 11.6946 15.9458 12.6933C16.4311 13.692 16.9678 14.7373 17.5558 15.8293C17.9291 14.98 18.2838 14.0466 18.6198 13.0293C18.9651 12.0026 19.2871 10.9853 19.5858 9.97729H21.0558C20.8411 10.6493 20.6265 11.284 20.4118 11.8813C20.1971 12.4693 19.9825 13.0386 19.7678 13.5893C19.5531 14.1306 19.3385 14.6626 19.1238 15.1853C18.9091 15.6986 18.6898 16.2073 18.4658 16.7113ZM23.3145 18.6993C23.3705 18.7086 23.4498 18.718 23.5525 18.7273C23.6552 18.7366 23.7718 18.746 23.9025 18.7553C24.0332 18.7553 24.1685 18.76 24.3085 18.7693C24.4578 18.7693 24.5978 18.7693 24.7285 18.7693C24.9992 18.7693 25.2558 18.7506 25.4985 18.7133C25.7505 18.676 25.9652 18.6106 26.1425 18.5173C26.3292 18.424 26.4738 18.3026 26.5765 18.1533C26.6885 17.9946 26.7445 17.794 26.7445 17.5513C26.7445 17.318 26.6932 17.1266 26.5905 16.9773C26.4972 16.8186 26.3665 16.6926 26.1985 16.5993C26.0305 16.506 25.8298 16.4406 25.5965 16.4033C25.3725 16.366 25.1298 16.3473 24.8685 16.3473H23.3145V18.6993ZM24.7005 15.3813C24.9525 15.3813 25.1812 15.3673 25.3865 15.3393C25.6012 15.302 25.7832 15.2413 25.9325 15.1573C26.0912 15.0733 26.2125 14.9613 26.2965 14.8213C26.3898 14.6813 26.4365 14.504 26.4365 14.2893C26.4365 14.0653 26.3805 13.888 26.2685 13.7573C26.1565 13.6266 26.0072 13.5286 25.8205 13.4633C25.6432 13.3886 25.4378 13.342 25.2045 13.3233C24.9805 13.2953 24.7518 13.2813 24.5185 13.2813C24.3038 13.2813 24.0845 13.286 23.8605 13.2953C23.6458 13.3046 23.4638 13.314 23.3145 13.3233V15.3813H24.7005ZM24.6725 19.8053C24.1218 19.8053 23.6132 19.7773 23.1465 19.7213C22.6798 19.6746 22.3112 19.6186 22.0405 19.5533V12.4693C22.3112 12.404 22.6798 12.348 23.1465 12.3013C23.6132 12.2453 24.1218 12.2173 24.6725 12.2173C25.0552 12.2173 25.4285 12.25 25.7925 12.3153C26.1565 12.3806 26.4785 12.4926 26.7585 12.6513C27.0385 12.8006 27.2625 13.0106 27.4305 13.2813C27.6078 13.5426 27.6965 13.8693 27.6965 14.2613C27.6965 14.616 27.6078 14.9193 27.4305 15.1713C27.2532 15.4233 27.0152 15.6193 26.7165 15.7593C27.1178 15.8993 27.4352 16.1093 27.6685 16.3893C27.9112 16.66 28.0325 17.0426 28.0325 17.5373C28.0325 17.976 27.9438 18.34 27.7665 18.6293C27.5985 18.9186 27.3605 19.152 27.0525 19.3293C26.7538 19.5066 26.3992 19.628 25.9885 19.6933C25.5778 19.768 25.1392 19.8053 24.6725 19.8053ZM32.2444 13.4913C32.2444 13.7993 32.2351 14.1306 32.2164 14.4853C32.2071 14.8306 32.1838 15.1806 32.1464 15.5353C32.1091 15.8806 32.0578 16.226 31.9924 16.5713C31.9271 16.9073 31.8431 17.2246 31.7404 17.5233C31.6378 17.822 31.5071 18.102 31.3484 18.3633C31.1991 18.6246 31.0124 18.858 30.7884 19.0633C30.5644 19.2593 30.3031 19.4273 30.0044 19.5673C29.7058 19.698 29.3558 19.782 28.9544 19.8193L28.7724 18.7273C29.2298 18.634 29.5891 18.4613 29.8504 18.2093C30.1211 17.9573 30.3358 17.6493 30.4944 17.2853C30.6344 16.968 30.7371 16.6086 30.8024 16.2073C30.8678 15.806 30.9144 15.3906 30.9424 14.9613C30.9704 14.5226 30.9844 14.084 30.9844 13.6453C30.9938 13.2066 30.9984 12.7913 30.9984 12.3993H35.8424V19.6793H34.5404V13.4913H32.2444ZM37.6716 16.0533C37.6716 15.4093 37.7649 14.8493 37.9516 14.3733C38.1383 13.888 38.3856 13.4866 38.6936 13.1693C39.0016 12.852 39.3563 12.614 39.7576 12.4553C40.1589 12.2966 40.5696 12.2173 40.9896 12.2173C41.9696 12.2173 42.7209 12.5253 43.2436 13.1413C43.7663 13.748 44.0276 14.6766 44.0276 15.9273C44.0276 15.9833 44.0276 16.058 44.0276 16.1513C44.0276 16.2353 44.0229 16.3146 44.0136 16.3893H39.0296C39.0856 17.1453 39.3049 17.7193 39.6876 18.1113C40.0703 18.5033 40.6676 18.6993 41.4796 18.6993C41.9369 18.6993 42.3196 18.662 42.6276 18.5873C42.9449 18.5033 43.1829 18.424 43.3416 18.3493L43.5236 19.4413C43.3649 19.5253 43.0849 19.614 42.6836 19.7073C42.2916 19.8006 41.8436 19.8473 41.3396 19.8473C40.7049 19.8473 40.1543 19.754 39.6876 19.5673C39.2303 19.3713 38.8523 19.1053 38.5536 18.7693C38.2549 18.4333 38.0309 18.0366 37.8816 17.5793C37.7416 17.1126 37.6716 16.604 37.6716 16.0533ZM42.6696 15.3393C42.6789 14.7513 42.5296 14.2706 42.2216 13.8973C41.9229 13.5146 41.5076 13.3233 40.9756 13.3233C40.6769 13.3233 40.4109 13.384 40.1776 13.5053C39.9536 13.6173 39.7623 13.7666 39.6036 13.9533C39.4449 14.14 39.3189 14.3546 39.2256 14.5973C39.1416 14.84 39.0856 15.0873 39.0576 15.3393H42.6696ZM48.5579 15.7173C48.8473 15.9226 49.1599 16.184 49.4959 16.5013C49.8319 16.8093 50.1586 17.1453 50.4759 17.5093C50.8026 17.8733 51.1059 18.2466 51.3859 18.6293C51.6659 19.0026 51.9039 19.3526 52.0999 19.6793H50.5599C50.3546 19.362 50.1119 19.04 49.8319 18.7133C49.5613 18.3773 49.2766 18.0553 48.9779 17.7473C48.6793 17.4393 48.3759 17.1546 48.0679 16.8933C47.7599 16.632 47.4706 16.4126 47.1999 16.2353V19.6793H45.8979V12.3993H47.1999V15.5213C47.4239 15.3066 47.6806 15.0593 47.9699 14.7793C48.2593 14.49 48.5486 14.2006 48.8379 13.9113C49.1366 13.6126 49.4119 13.3326 49.6639 13.0713C49.9159 12.8006 50.1213 12.5766 50.2799 12.3993H51.7919C51.5866 12.6233 51.3439 12.88 51.0639 13.1693C50.7933 13.4493 50.5086 13.7386 50.2099 14.0373C49.9206 14.336 49.6313 14.6346 49.3419 14.9333C49.0526 15.2226 48.7913 15.484 48.5579 15.7173ZM55.8815 18.7413C56.1895 18.7413 56.4601 18.7366 56.6935 18.7273C56.9361 18.7086 57.1368 18.6806 57.2955 18.6433V16.4733C57.2021 16.4266 57.0481 16.3893 56.8335 16.3613C56.6281 16.324 56.3761 16.3053 56.0775 16.3053C55.8815 16.3053 55.6715 16.3193 55.4475 16.3473C55.2328 16.3753 55.0321 16.436 54.8455 16.5293C54.6681 16.6133 54.5188 16.7346 54.3975 16.8933C54.2761 17.0426 54.2155 17.2433 54.2155 17.4953C54.2155 17.962 54.3648 18.2886 54.6635 18.4753C54.9621 18.6526 55.3681 18.7413 55.8815 18.7413ZM55.7695 12.2173C56.2921 12.2173 56.7308 12.2873 57.0855 12.4273C57.4495 12.558 57.7388 12.7493 57.9535 13.0013C58.1775 13.244 58.3361 13.538 58.4295 13.8833C58.5228 14.2193 58.5695 14.5926 58.5695 15.0033V19.5533C58.4575 19.572 58.2988 19.6 58.0935 19.6373C57.8975 19.6653 57.6735 19.6933 57.4215 19.7213C57.1695 19.7493 56.8941 19.7726 56.5955 19.7913C56.3061 19.8193 56.0168 19.8333 55.7275 19.8333C55.3168 19.8333 54.9388 19.7913 54.5935 19.7073C54.2481 19.6233 53.9495 19.4926 53.6975 19.3153C53.4455 19.1286 53.2495 18.886 53.1095 18.5873C52.9695 18.2886 52.8995 17.9293 52.8995 17.5093C52.8995 17.108 52.9788 16.7626 53.1375 16.4733C53.3055 16.184 53.5295 15.9506 53.8095 15.7733C54.0895 15.596 54.4161 15.4653 54.7895 15.3813C55.1628 15.2973 55.5548 15.2553 55.9655 15.2553C56.0961 15.2553 56.2315 15.2646 56.3715 15.2833C56.5115 15.2926 56.6421 15.3113 56.7635 15.3393C56.8941 15.358 57.0061 15.3766 57.0995 15.3953C57.1928 15.414 57.2581 15.428 57.2955 15.4373V15.0733C57.2955 14.8586 57.2721 14.6486 57.2255 14.4433C57.1788 14.2286 57.0948 14.042 56.9735 13.8833C56.8521 13.7153 56.6841 13.5846 56.4695 13.4913C56.2641 13.3886 55.9935 13.3373 55.6575 13.3373C55.2281 13.3373 54.8501 13.37 54.5235 13.4353C54.2061 13.4913 53.9681 13.552 53.8095 13.6173L53.6555 12.5393C53.8235 12.4646 54.1035 12.3946 54.4955 12.3293C54.8875 12.2546 55.3121 12.2173 55.7695 12.2173ZM65.8699 12.3993V13.4913H63.5039V19.6793H62.2019V13.4913H59.8359V12.3993H65.8699ZM66.8064 16.0533C66.8064 15.4093 66.8997 14.8493 67.0864 14.3733C67.273 13.888 67.5204 13.4866 67.8284 13.1693C68.1364 12.852 68.491 12.614 68.8924 12.4553C69.2937 12.2966 69.7044 12.2173 70.1244 12.2173C71.1044 12.2173 71.8557 12.5253 72.3784 13.1413C72.901 13.748 73.1624 14.6766 73.1624 15.9273C73.1624 15.9833 73.1624 16.058 73.1624 16.1513C73.1624 16.2353 73.1577 16.3146 73.1484 16.3893H68.1644C68.2204 17.1453 68.4397 17.7193 68.8224 18.1113C69.205 18.5033 69.8024 18.6993 70.6144 18.6993C71.0717 18.6993 71.4544 18.662 71.7624 18.5873C72.0797 18.5033 72.3177 18.424 72.4764 18.3493L72.6584 19.4413C72.4997 19.5253 72.2197 19.614 71.8184 19.7073C71.4264 19.8006 70.9784 19.8473 70.4744 19.8473C69.8397 19.8473 69.289 19.754 68.8224 19.5673C68.365 19.3713 67.987 19.1053 67.6884 18.7693C67.3897 18.4333 67.1657 18.0366 67.0164 17.5793C66.8764 17.1126 66.8064 16.604 66.8064 16.0533ZM71.8044 15.3393C71.8137 14.7513 71.6644 14.2706 71.3564 13.8973C71.0577 13.5146 70.6424 13.3233 70.1104 13.3233C69.8117 13.3233 69.5457 13.384 69.3124 13.5053C69.0884 13.6173 68.897 13.7666 68.7384 13.9533C68.5797 14.14 68.4537 14.3546 68.3604 14.5973C68.2764 14.84 68.2204 15.0873 68.1924 15.3393H71.8044ZM77.5667 13.4913C77.5667 13.7993 77.5574 14.1306 77.5387 14.4853C77.5294 14.8306 77.506 15.1806 77.4687 15.5353C77.4314 15.8806 77.38 16.226 77.3147 16.5713C77.2494 16.9073 77.1654 17.2246 77.0627 17.5233C76.96 17.822 76.8294 18.102 76.6707 18.3633C76.5214 18.6246 76.3347 18.858 76.1107 19.0633C75.8867 19.2593 75.6254 19.4273 75.3267 19.5673C75.028 19.698 74.678 19.782 74.2767 19.8193L74.0947 18.7273C74.552 18.634 74.9114 18.4613 75.1727 18.2093C75.4434 17.9573 75.658 17.6493 75.8167 17.2853C75.9567 16.968 76.0594 16.6086 76.1247 16.2073C76.19 15.806 76.2367 15.3906 76.2647 14.9613C76.2927 14.5226 76.3067 14.084 76.3067 13.6453C76.316 13.2066 76.3207 12.7913 76.3207 12.3993H81.1647V19.6793H79.8627V13.4913H77.5667ZM86.1579 18.7693C86.7085 18.7693 87.1425 18.662 87.4599 18.4473C87.7772 18.2326 87.9359 17.8873 87.9359 17.4113C87.9359 17.178 87.8892 16.9773 87.7959 16.8093C87.7025 16.6413 87.5719 16.506 87.4039 16.4033C87.2452 16.2913 87.0585 16.212 86.8439 16.1653C86.6292 16.1093 86.4005 16.0813 86.1579 16.0813C85.9059 16.0813 85.6445 16.0906 85.3739 16.1093C85.1125 16.1186 84.8885 16.1466 84.7019 16.1933V18.6993C84.7579 18.7086 84.8419 18.718 84.9539 18.7273C85.0659 18.7366 85.1872 18.746 85.3179 18.7553C85.4579 18.7553 85.5979 18.76 85.7379 18.7693C85.8872 18.7693 86.0272 18.7693 86.1579 18.7693ZM83.3999 19.5253V12.3993H84.7019V15.1853C84.7765 15.1666 84.8745 15.148 84.9959 15.1293C85.1265 15.1106 85.2619 15.092 85.4019 15.0733C85.5512 15.0546 85.7052 15.0406 85.8639 15.0313C86.0225 15.022 86.1719 15.0173 86.3119 15.0173C86.7132 15.0173 87.0912 15.064 87.4459 15.1573C87.8005 15.2413 88.1085 15.3813 88.3699 15.5773C88.6405 15.764 88.8552 16.0113 89.0139 16.3193C89.1725 16.618 89.2519 16.9773 89.2519 17.3973C89.2519 17.836 89.1772 18.2093 89.0279 18.5173C88.8785 18.8253 88.6639 19.0773 88.3839 19.2733C88.1039 19.4693 87.7679 19.6093 87.3759 19.6933C86.9932 19.7866 86.5639 19.8333 86.0879 19.8333C85.6212 19.8333 85.1639 19.8053 84.7159 19.7493C84.2679 19.7026 83.8292 19.628 83.3999 19.5253ZM96.7604 19.6793H95.4584V16.4593H92.0984V19.6793H90.7964V12.3993H92.0984V15.3673H95.4584V12.3993H96.7604V19.6793ZM105.425 16.0393C105.425 16.618 105.341 17.1406 105.173 17.6073C105.005 18.074 104.767 18.4753 104.459 18.8113C104.161 19.1473 103.801 19.4086 103.381 19.5953C102.961 19.7726 102.504 19.8613 102.009 19.8613C101.515 19.8613 101.057 19.7726 100.637 19.5953C100.217 19.4086 99.8535 19.1473 99.5455 18.8113C99.2468 18.4753 99.0135 18.074 98.8455 17.6073C98.6775 17.1406 98.5935 16.618 98.5935 16.0393C98.5935 15.47 98.6775 14.952 98.8455 14.4853C99.0135 14.0093 99.2468 13.6033 99.5455 13.2673C99.8535 12.9313 100.217 12.6746 100.637 12.4973C101.057 12.3106 101.515 12.2173 102.009 12.2173C102.504 12.2173 102.961 12.3106 103.381 12.4973C103.801 12.6746 104.161 12.9313 104.459 13.2673C104.767 13.6033 105.005 14.0093 105.173 14.4853C105.341 14.952 105.425 15.47 105.425 16.0393ZM104.067 16.0393C104.067 15.218 103.881 14.5693 103.507 14.0933C103.143 13.608 102.644 13.3653 102.009 13.3653C101.375 13.3653 100.871 13.608 100.497 14.0933C100.133 14.5693 99.9515 15.218 99.9515 16.0393C99.9515 16.8606 100.133 17.514 100.497 17.9993C100.871 18.4753 101.375 18.7133 102.009 18.7133C102.644 18.7133 103.143 18.4753 103.507 17.9993C103.881 17.514 104.067 16.8606 104.067 16.0393ZM108.769 12.6093C108.769 13.3933 108.741 14.1073 108.685 14.7513C108.629 15.386 108.559 16.0206 108.475 16.6553H107.663C107.579 16.0206 107.509 15.386 107.453 14.7513C107.397 14.1073 107.369 13.3933 107.369 12.6093V9.97729H108.769V12.6093ZM109.007 18.9233C109.007 19.1753 108.923 19.3946 108.755 19.5813C108.587 19.768 108.359 19.8613 108.069 19.8613C107.78 19.8613 107.551 19.768 107.383 19.5813C107.215 19.3946 107.131 19.1753 107.131 18.9233C107.131 18.6713 107.215 18.452 107.383 18.2653C107.551 18.0786 107.78 17.9853 108.069 17.9853C108.359 17.9853 108.587 18.0786 108.755 18.2653C108.923 18.452 109.007 18.6713 109.007 18.9233Z" fill="black"/>
</svg>
