<svg width="163" height="50" viewBox="0 0 163 50" fill="none" xmlns="http://www.w3.org/2000/svg">
<path d="M55 0H147C155.3 0 162 6.7 162 15C162 23.3 155.3 30 147 30H55C46.7 30 40 23.3 40 15C40 6.7 46.7 0 55 0Z" fill="#1455E1"/>
<path d="M45.4 39.2L15.4 47.2C12.8 47.9 10.6 45.1 11.9 42.8L26.9 15.6C28.2 13.3 31.6 13.6 32.5 16.1L35.9 26.2C36.1 26.9 36.6 27.4 37.2 27.8L46.4 33.6C48.5 35.1 48 38.6 45.4 39.2Z" fill="#1455E1"/>
<path d="M61.26 18.1148C60.53 18.1148 59.865 17.9948 59.265 17.7548C58.665 17.5148 58.15 17.1648 57.72 16.7048C57.29 16.2448 56.955 15.6798 56.715 15.0098C56.485 14.3298 56.37 13.5548 56.37 12.6848C56.37 11.8148 56.5 11.0448 56.76 10.3748C57.03 9.6948 57.39 9.1248 57.84 8.6648C58.29 8.2048 58.815 7.8548 59.415 7.6148C60.015 7.3748 60.655 7.2548 61.335 7.2548C61.765 7.2548 62.15 7.2848 62.49 7.3448C62.84 7.4048 63.14 7.4748 63.39 7.5548C63.65 7.6348 63.86 7.7148 64.02 7.7948C64.18 7.8748 64.29 7.9348 64.35 7.9748L63.93 9.1748C63.84 9.1148 63.71 9.0498 63.54 8.9798C63.37 8.9098 63.175 8.8398 62.955 8.7698C62.745 8.6998 62.51 8.6448 62.25 8.6048C62 8.5548 61.745 8.5298 61.485 8.5298C60.935 8.5298 60.44 8.6248 60 8.8148C59.56 9.0048 59.185 9.2798 58.875 9.6398C58.565 9.9998 58.325 10.4398 58.155 10.9598C57.995 11.4698 57.915 12.0448 57.915 12.6848C57.915 13.3048 57.985 13.8698 58.125 14.3798C58.275 14.8898 58.495 15.3298 58.785 15.6998C59.075 16.0598 59.435 16.3398 59.865 16.5398C60.305 16.7398 60.815 16.8398 61.395 16.8398C62.065 16.8398 62.62 16.7698 63.06 16.6298C63.5 16.4898 63.83 16.3648 64.05 16.2548L64.425 17.4548C64.355 17.5048 64.23 17.5698 64.05 17.6498C63.87 17.7198 63.645 17.7898 63.375 17.8598C63.105 17.9298 62.79 17.9898 62.43 18.0398C62.07 18.0898 61.68 18.1148 61.26 18.1148ZM72.667 13.9898C72.667 14.6098 72.577 15.1698 72.397 15.6698C72.217 16.1698 71.962 16.5998 71.632 16.9598C71.312 17.3198 70.927 17.5998 70.477 17.7998C70.027 17.9898 69.537 18.0848 69.007 18.0848C68.477 18.0848 67.987 17.9898 67.537 17.7998C67.087 17.5998 66.697 17.3198 66.367 16.9598C66.047 16.5998 65.797 16.1698 65.617 15.6698C65.437 15.1698 65.347 14.6098 65.347 13.9898C65.347 13.3798 65.437 12.8248 65.617 12.3248C65.797 11.8148 66.047 11.3798 66.367 11.0198C66.697 10.6598 67.087 10.3848 67.537 10.1948C67.987 9.9948 68.477 9.8948 69.007 9.8948C69.537 9.8948 70.027 9.9948 70.477 10.1948C70.927 10.3848 71.312 10.6598 71.632 11.0198C71.962 11.3798 72.217 11.8148 72.397 12.3248C72.577 12.8248 72.667 13.3798 72.667 13.9898ZM71.212 13.9898C71.212 13.1098 71.012 12.4148 70.612 11.9048C70.222 11.3848 69.687 11.1248 69.007 11.1248C68.327 11.1248 67.787 11.3848 67.387 11.9048C66.997 12.4148 66.802 13.1098 66.802 13.9898C66.802 14.8698 66.997 15.5698 67.387 16.0898C67.787 16.5998 68.327 16.8548 69.007 16.8548C69.687 16.8548 70.222 16.5998 70.612 16.0898C71.012 15.5698 71.212 14.8698 71.212 13.9898ZM75.9947 16.8398C76.0547 16.8498 76.1397 16.8598 76.2497 16.8698C76.3597 16.8798 76.4847 16.8898 76.6247 16.8998C76.7647 16.8998 76.9097 16.9048 77.0597 16.9148C77.2197 16.9148 77.3697 16.9148 77.5097 16.9148C77.7997 16.9148 78.0747 16.8948 78.3347 16.8548C78.6047 16.8148 78.8347 16.7448 79.0247 16.6448C79.2247 16.5448 79.3797 16.4148 79.4897 16.2548C79.6097 16.0848 79.6697 15.8698 79.6697 15.6098C79.6697 15.3598 79.6147 15.1548 79.5047 14.9948C79.4047 14.8248 79.2647 14.6898 79.0847 14.5898C78.9047 14.4898 78.6897 14.4198 78.4397 14.3798C78.1997 14.3398 77.9397 14.3198 77.6597 14.3198H75.9947V16.8398ZM77.4797 13.2848C77.7497 13.2848 77.9947 13.2698 78.2147 13.2398C78.4447 13.1998 78.6397 13.1348 78.7997 13.0448C78.9697 12.9548 79.0997 12.8348 79.1897 12.6848C79.2897 12.5348 79.3397 12.3448 79.3397 12.1148C79.3397 11.8748 79.2797 11.6848 79.1597 11.5448C79.0397 11.4048 78.8797 11.2998 78.6797 11.2298C78.4897 11.1498 78.2697 11.0998 78.0197 11.0798C77.7797 11.0498 77.5347 11.0348 77.2847 11.0348C77.0547 11.0348 76.8197 11.0398 76.5797 11.0498C76.3497 11.0598 76.1547 11.0698 75.9947 11.0798V13.2848H77.4797ZM77.4497 18.0248C76.8597 18.0248 76.3147 17.9948 75.8147 17.9348C75.3147 17.8848 74.9197 17.8248 74.6297 17.7548V10.1648C74.9197 10.0948 75.3147 10.0348 75.8147 9.9848C76.3147 9.9248 76.8597 9.8948 77.4497 9.8948C77.8597 9.8948 78.2597 9.9298 78.6497 9.9998C79.0397 10.0698 79.3847 10.1898 79.6847 10.3598C79.9847 10.5198 80.2247 10.7448 80.4047 11.0348C80.5947 11.3148 80.6897 11.6648 80.6897 12.0848C80.6897 12.4648 80.5947 12.7898 80.4047 13.0598C80.2147 13.3298 79.9597 13.5398 79.6397 13.6898C80.0697 13.8398 80.4097 14.0648 80.6597 14.3648C80.9197 14.6548 81.0497 15.0648 81.0497 15.5948C81.0497 16.0648 80.9547 16.4548 80.7647 16.7648C80.5847 17.0748 80.3297 17.3248 79.9997 17.5148C79.6797 17.7048 79.2997 17.8348 78.8597 17.9048C78.4197 17.9848 77.9497 18.0248 77.4497 18.0248ZM88.2625 14.0048C88.2625 13.0948 88.0375 12.3948 87.5875 11.9048C87.1375 11.4148 86.5375 11.1698 85.7875 11.1698C85.3675 11.1698 85.0375 11.1848 84.7975 11.2148C84.5675 11.2448 84.3825 11.2798 84.2425 11.3198V16.2398C84.4125 16.3798 84.6575 16.5148 84.9775 16.6448C85.2975 16.7748 85.6475 16.8398 86.0275 16.8398C86.4275 16.8398 86.7675 16.7698 87.0475 16.6298C87.3375 16.4798 87.5725 16.2798 87.7525 16.0298C87.9325 15.7698 88.0625 15.4698 88.1425 15.1298C88.2225 14.7798 88.2625 14.4048 88.2625 14.0048ZM89.7175 14.0048C89.7175 14.5948 89.6375 15.1398 89.4775 15.6398C89.3275 16.1398 89.1025 16.5698 88.8025 16.9298C88.5025 17.2898 88.1325 17.5698 87.6925 17.7698C87.2625 17.9698 86.7675 18.0698 86.2075 18.0698C85.7575 18.0698 85.3575 18.0098 85.0075 17.8898C84.6675 17.7698 84.4125 17.6548 84.2425 17.5448V20.6648H82.8475V10.3298C83.1775 10.2498 83.5875 10.1648 84.0775 10.0748C84.5775 9.9748 85.1525 9.9248 85.8025 9.9248C86.4025 9.9248 86.9425 10.0198 87.4225 10.2098C87.9025 10.3998 88.3125 10.6698 88.6525 11.0198C88.9925 11.3698 89.2525 11.7998 89.4325 12.3098C89.6225 12.8098 89.7175 13.3748 89.7175 14.0048ZM91.2455 14.0048C91.2455 13.3148 91.3455 12.7148 91.5455 12.2048C91.7455 11.6848 92.0105 11.2548 92.3405 10.9148C92.6705 10.5748 93.0505 10.3198 93.4805 10.1498C93.9105 9.9798 94.3505 9.8948 94.8005 9.8948C95.8505 9.8948 96.6555 10.2248 97.2155 10.8848C97.7755 11.5348 98.0555 12.5298 98.0555 13.8698C98.0555 13.9298 98.0555 14.0098 98.0555 14.1098C98.0555 14.1998 98.0505 14.2848 98.0405 14.3648H92.7005C92.7605 15.1748 92.9955 15.7898 93.4055 16.2098C93.8155 16.6298 94.4555 16.8398 95.3255 16.8398C95.8155 16.8398 96.2255 16.7998 96.5555 16.7198C96.8955 16.6298 97.1505 16.5448 97.3205 16.4648L97.5155 17.6348C97.3455 17.7248 97.0455 17.8198 96.6155 17.9198C96.1955 18.0198 95.7155 18.0698 95.1755 18.0698C94.4955 18.0698 93.9055 17.9698 93.4055 17.7698C92.9155 17.5598 92.5105 17.2748 92.1905 16.9148C91.8705 16.5548 91.6305 16.1298 91.4705 15.6398C91.3205 15.1398 91.2455 14.5948 91.2455 14.0048ZM96.6005 13.2398C96.6105 12.6098 96.4505 12.0948 96.1205 11.6948C95.8005 11.2848 95.3555 11.0798 94.7855 11.0798C94.4655 11.0798 94.1805 11.1448 93.9305 11.2748C93.6905 11.3948 93.4855 11.5548 93.3155 11.7548C93.1455 11.9548 93.0105 12.1848 92.9105 12.4448C92.8205 12.7048 92.7605 12.9698 92.7305 13.2398H96.6005ZM101.544 12.1448C101.444 13.1348 101.369 14.1248 101.319 15.1148C101.269 16.0948 101.229 17.0198 101.199 17.8898H99.8644C99.8844 17.2798 99.9144 16.6448 99.9544 15.9848C99.9944 15.3148 100.039 14.6448 100.089 13.9748C100.139 13.2948 100.194 12.6298 100.254 11.9798C100.314 11.3198 100.379 10.6898 100.449 10.0898H101.724C102.044 10.6098 102.419 11.3248 102.849 12.2348C103.279 13.1348 103.774 14.1748 104.334 15.3548C104.894 14.1748 105.389 13.1348 105.819 12.2348C106.249 11.3248 106.624 10.6098 106.944 10.0898H108.234C108.304 10.6898 108.369 11.3198 108.429 11.9798C108.489 12.6298 108.544 13.2948 108.594 13.9748C108.644 14.6448 108.689 15.3148 108.729 15.9848C108.769 16.6448 108.799 17.2798 108.819 17.8898H107.439C107.409 17.0198 107.369 16.0948 107.319 15.1148C107.269 14.1248 107.194 13.1348 107.094 12.1448C106.934 12.4548 106.749 12.8298 106.539 13.2698C106.329 13.6998 106.119 14.1398 105.909 14.5898C105.709 15.0398 105.519 15.4698 105.339 15.8798C105.159 16.2898 105.019 16.6148 104.919 16.8548H103.749C103.639 16.6048 103.489 16.2748 103.299 15.8648C103.119 15.4548 102.924 15.0248 102.714 14.5748C102.514 14.1148 102.309 13.6698 102.099 13.2398C101.889 12.7998 101.704 12.4348 101.544 12.1448ZM110.596 14.0048C110.596 13.3148 110.696 12.7148 110.896 12.2048C111.096 11.6848 111.361 11.2548 111.691 10.9148C112.021 10.5748 112.401 10.3198 112.831 10.1498C113.261 9.9798 113.701 9.8948 114.151 9.8948C115.201 9.8948 116.006 10.2248 116.566 10.8848C117.126 11.5348 117.406 12.5298 117.406 13.8698C117.406 13.9298 117.406 14.0098 117.406 14.1098C117.406 14.1998 117.401 14.2848 117.391 14.3648H112.051C112.111 15.1748 112.346 15.7898 112.756 16.2098C113.166 16.6298 113.806 16.8398 114.676 16.8398C115.166 16.8398 115.576 16.7998 115.906 16.7198C116.246 16.6298 116.501 16.5448 116.671 16.4648L116.866 17.6348C116.696 17.7248 116.396 17.8198 115.966 17.9198C115.546 18.0198 115.066 18.0698 114.526 18.0698C113.846 18.0698 113.256 17.9698 112.756 17.7698C112.266 17.5598 111.861 17.2748 111.541 16.9148C111.221 16.5548 110.981 16.1298 110.821 15.6398C110.671 15.1398 110.596 14.5948 110.596 14.0048ZM115.951 13.2398C115.961 12.6098 115.801 12.0948 115.471 11.6948C115.151 11.2848 114.706 11.0798 114.136 11.0798C113.816 11.0798 113.531 11.1448 113.281 11.2748C113.041 11.3948 112.836 11.5548 112.666 11.7548C112.496 11.9548 112.361 12.1848 112.261 12.4448C112.171 12.7048 112.111 12.9698 112.081 13.2398H115.951ZM125.8 17.8898H124.405V14.4398H120.805V17.8898H119.41V10.0898H120.805V13.2698H124.405V10.0898H125.8V17.8898ZM134.589 17.8898H133.194V14.4398H129.594V17.8898H128.199V10.0898H129.594V13.2698H133.194V10.0898H134.589V17.8898ZM143.873 13.9898C143.873 14.6098 143.783 15.1698 143.603 15.6698C143.423 16.1698 143.168 16.5998 142.838 16.9598C142.518 17.3198 142.133 17.5998 141.683 17.7998C141.233 17.9898 140.743 18.0848 140.213 18.0848C139.683 18.0848 139.193 17.9898 138.743 17.7998C138.293 17.5998 137.903 17.3198 137.573 16.9598C137.253 16.5998 137.003 16.1698 136.823 15.6698C136.643 15.1698 136.553 14.6098 136.553 13.9898C136.553 13.3798 136.643 12.8248 136.823 12.3248C137.003 11.8148 137.253 11.3798 137.573 11.0198C137.903 10.6598 138.293 10.3848 138.743 10.1948C139.193 9.9948 139.683 9.8948 140.213 9.8948C140.743 9.8948 141.233 9.9948 141.683 10.1948C142.133 10.3848 142.518 10.6598 142.838 11.0198C143.168 11.3798 143.423 11.8148 143.603 12.3248C143.783 12.8248 143.873 13.3798 143.873 13.9898ZM142.418 13.9898C142.418 13.1098 142.218 12.4148 141.818 11.9048C141.428 11.3848 140.893 11.1248 140.213 11.1248C139.533 11.1248 138.993 11.3848 138.593 11.9048C138.203 12.4148 138.008 13.1098 138.008 13.9898C138.008 14.8698 138.203 15.5698 138.593 16.0898C138.993 16.5998 139.533 16.8548 140.213 16.8548C140.893 16.8548 141.428 16.5998 141.818 16.0898C142.218 15.5698 142.418 14.8698 142.418 13.9898Z" fill="white"/>
</svg>
