<svg width="167" height="48" viewBox="0 0 167 48" fill="none" xmlns="http://www.w3.org/2000/svg">
<path d="M15.2 18H108.7C117 18 123.7 24.7 123.7 33C123.7 41.3 117 48 108.7 48H15.2C6.90001 48 0.200012 41.3 0.200012 33C0.200012 24.7 6.90001 18 15.2 18Z" fill="#F2BCBD"/>
<path d="M121.3 10L151.3 2.00001C153.9 1.30001 156.1 4.10001 154.8 6.40001L139.8 33.6C138.5 35.9 135.1 35.6 134.2 33.1L130.8 23C130.6 22.3 130.1 21.8 129.5 21.4L120.3 15.6C118.2 14.1 118.7 10.7 121.3 10Z" fill="#F2BCBD"/>
<path d="M18 26.7C18.2 26.7 18.4 26.7 18.7 26.7C18.9 26.7 19.2 26.7 19.4 26.7C19.6 26.7 19.9 26.7 20.1 26.8C20.3 26.8 20.6 26.9 20.8 26.9V37.1H19.3V33H18.1C18 33 17.8 33 17.7 33C17.5 33 17.3 33 17.1 32.9C16.9 33.1 16.7 33.4 16.5 33.7C16.3 34 16.1 34.4 15.9 34.7C15.7 35.1 15.5 35.4 15.3 35.8C15.1 36.2 14.9 36.6 14.7 36.9H13.2C13.4 36.5 13.6 36.1 13.8 35.7C14 35.3 14.2 34.9 14.5 34.5C14.8 34.1 15 33.8 15.2 33.4C15.4 33.1 15.6 32.8 15.8 32.6C15.6 32.5 15.3 32.4 15.1 32.3C14.9 32.2 14.6 32 14.4 31.8C14.2 31.6 14 31.3 13.9 30.9C13.8 30.6 13.7 30.1 13.7 29.7C13.7 29.2 13.8 28.7 14 28.3C14.2 27.9 14.5 27.5 14.9 27.3C15.3 27 15.8 26.8 16.3 26.7C16.7 26.8 17.3 26.7 18 26.7ZM17.9 28C17.5 28 17.2 28 16.8 28.1C16.5 28.2 16.1 28.3 15.9 28.4C15.6 28.6 15.4 28.8 15.3 29C15.2 29.2 15 29.6 15 30C15 30.7 15.2 31.3 15.7 31.5C16.2 31.8 16.9 31.9 17.8 31.9H19.3V28C19.2 28 19.1 28 18.9 28C18.8 28 18.6 28 18.4 28C18.3 28 18.1 28 17.9 28Z" fill="black"/>
<path d="M29.6 37.4C29 37.4 28.5 37.4 28 37.3C27.5 37.2 27.1 37.2 26.8 37.1V29.5C27.1 29.4 27.5 29.4 28 29.3C28.5 29.2 29 29.2 29.6 29.2C30 29.2 30.4 29.2 30.8 29.3C31.2 29.4 31.5 29.5 31.8 29.7C32.1 29.9 32.3 30.1 32.5 30.4C32.7 30.7 32.8 31 32.8 31.5C32.8 31.9 32.7 32.2 32.5 32.5C32.3 32.8 32.1 33 31.7 33.1C32.1 33.3 32.5 33.5 32.7 33.8C33 34.1 33.1 34.5 33.1 35C33.1 35.5 33 35.9 32.8 36.2C32.6 36.5 32.4 36.8 32 37C31.7 37.2 31.3 37.3 30.9 37.4C30.5 37.3 30.1 37.4 29.6 37.4ZM29.6 32.6C29.9 32.6 30.1 32.6 30.3 32.5C30.5 32.4 30.7 32.4 30.9 32.3C31.1 32.2 31.2 32.1 31.3 31.9C31.4 31.7 31.4 31.6 31.4 31.3C31.4 31.1 31.3 30.9 31.2 30.7C31.1 30.6 30.9 30.5 30.7 30.4C30.5 30.3 30.3 30.3 30 30.3C29.8 30.3 29.5 30.3 29.3 30.3C29.1 30.3 28.8 30.3 28.6 30.3C28.4 30.3 28.2 30.3 28 30.3V32.5H29.6V32.6ZM28.1 36.2C28.2 36.2 28.2 36.2 28.4 36.2C28.5 36.2 28.6 36.2 28.8 36.2C29 36.2 29.1 36.2 29.2 36.2C29.4 36.2 29.5 36.2 29.6 36.2C29.9 36.2 30.2 36.2 30.4 36.1C30.7 36.1 30.9 36 31.1 35.9C31.3 35.8 31.5 35.7 31.6 35.5C31.7 35.3 31.8 35.1 31.8 34.9C31.8 34.7 31.7 34.4 31.6 34.3C31.5 34.2 31.4 34 31.2 33.9C31 33.8 30.8 33.7 30.6 33.7C30.4 33.7 30.1 33.6 29.8 33.6H28.1V36.2Z" fill="black"/>
<path d="M41.3 37.4C40.7 37.4 40.2 37.4 39.7 37.3C39.2 37.2 38.8 37.2 38.5 37.1V29.5C38.8 29.4 39.2 29.4 39.7 29.3C40.2 29.2 40.7 29.2 41.3 29.2C41.7 29.2 42.1 29.2 42.5 29.3C42.9 29.4 43.2 29.5 43.5 29.7C43.8 29.9 44 30.1 44.2 30.4C44.4 30.7 44.5 31 44.5 31.5C44.5 31.9 44.4 32.2 44.2 32.5C44 32.8 43.8 33 43.4 33.1C43.8 33.3 44.2 33.5 44.4 33.8C44.7 34.1 44.8 34.5 44.8 35C44.8 35.5 44.7 35.9 44.5 36.2C44.3 36.5 44.1 36.8 43.7 37C43.4 37.2 43 37.3 42.6 37.4C42.2 37.3 41.8 37.4 41.3 37.4ZM41.3 32.6C41.6 32.6 41.8 32.6 42 32.5C42.2 32.4 42.4 32.4 42.6 32.3C42.8 32.2 42.9 32.1 43 31.9C43.1 31.7 43.1 31.6 43.1 31.3C43.1 31.1 43 30.9 42.9 30.7C42.8 30.6 42.6 30.5 42.4 30.4C42.2 30.3 42 30.3 41.7 30.3C41.5 30.3 41.2 30.3 41 30.3C40.8 30.3 40.5 30.3 40.3 30.3C40.1 30.3 39.9 30.3 39.7 30.3V32.5H41.3V32.6ZM39.8 36.2C39.9 36.2 39.9 36.2 40.1 36.2C40.2 36.2 40.3 36.2 40.5 36.2C40.7 36.2 40.8 36.2 40.9 36.2C41.1 36.2 41.2 36.2 41.3 36.2C41.6 36.2 41.9 36.2 42.1 36.1C42.4 36.1 42.6 36 42.8 35.9C43 35.8 43.2 35.7 43.3 35.5C43.4 35.3 43.5 35.1 43.5 34.9C43.5 34.7 43.4 34.4 43.3 34.3C43.2 34.2 43.1 34 42.9 33.9C42.7 33.8 42.5 33.7 42.3 33.7C42.1 33.7 41.8 33.6 41.5 33.6H39.8V36.2Z" fill="black"/>
<path d="M53.5 33.3C53.5 33.9 53.4 34.5 53.2 35C53 35.5 52.8 35.9 52.4 36.3C52.1 36.7 51.7 36.9 51.2 37.1C50.7 37.3 50.3 37.4 49.7 37.4C49.2 37.4 48.7 37.3 48.2 37.1C47.7 36.9 47.4 36.6 47 36.3C46.7 35.9 46.4 35.5 46.2 35C46 34.5 45.9 33.9 45.9 33.3C45.9 32.7 46 32.1 46.2 31.6C46.4 31.1 46.6 30.7 47 30.3C47.3 29.9 47.7 29.7 48.2 29.5C48.6 29.3 49.1 29.2 49.7 29.2C50.2 29.2 50.7 29.3 51.2 29.5C51.7 29.7 52 30 52.4 30.3C52.7 30.7 53 31.1 53.2 31.6C53.4 32.1 53.5 32.7 53.5 33.3ZM52.1 33.3C52.1 32.4 51.9 31.7 51.5 31.2C51.1 30.7 50.6 30.4 49.9 30.4C49.2 30.4 48.7 30.7 48.3 31.2C47.9 31.7 47.7 32.4 47.7 33.3C47.7 34.2 47.9 34.9 48.3 35.4C48.7 35.9 49.2 36.2 49.9 36.2C50.6 36.2 51.1 35.9 51.5 35.4C51.9 34.9 52.1 34.2 52.1 33.3Z" fill="black"/>
<path d="M58.9 37.4C58.3 37.4 57.7 37.3 57.2 37.1C56.7 36.9 56.3 36.6 56 36.3C55.7 35.9 55.4 35.5 55.3 35C55.2 34.5 55.1 34 55.1 33.4C55.1 32.8 55.2 32.2 55.4 31.7C55.6 31.2 55.8 30.8 56.1 30.4C56.4 30 56.8 29.7 57.3 29.5C57.8 29.3 58.3 29.2 58.9 29.2C59.2 29.2 59.6 29.2 59.9 29.3C60.3 29.4 60.6 29.5 60.9 29.6L60.6 30.8C60.4 30.7 60.1 30.6 59.9 30.6C59.6 30.5 59.3 30.5 59 30.5C58.2 30.5 57.6 30.7 57.2 31.2C56.8 31.7 56.6 32.4 56.6 33.3C56.6 33.7 56.6 34.1 56.7 34.5C56.8 34.9 56.9 35.2 57.2 35.4C57.5 35.6 57.7 35.8 58 36C58.3 36.1 58.7 36.2 59.2 36.2C59.6 36.2 59.9 36.2 60.2 36.1C60.5 36 60.7 36 60.9 35.9L61 37C60.9 37 60.8 37.1 60.7 37.1C60.6 37.1 60.4 37.2 60.2 37.2C60 37.2 59.8 37.3 59.6 37.3C59.3 37.4 59.1 37.4 58.9 37.4Z" fill="black"/>
<path d="M68.2 29.4V30.6H65.7V37.2H64.3V30.6H61.8V29.4H68.2Z" fill="black"/>
<path d="M76.5 33.3C76.5 33.9 76.4 34.5 76.2 35C76 35.5 75.8 35.9 75.4 36.3C75.1 36.7 74.7 36.9 74.2 37.1C73.8 37.3 73.3 37.4 72.7 37.4C72.1 37.4 71.7 37.3 71.2 37.1C70.7 36.9 70.4 36.6 70 36.3C69.7 35.9 69.4 35.5 69.2 35C69 34.5 68.9 33.9 68.9 33.3C68.9 32.7 69 32.1 69.2 31.6C69.4 31.1 69.6 30.7 70 30.3C70.3 29.9 70.7 29.7 71.2 29.5C71.7 29.3 72.1 29.2 72.7 29.2C73.3 29.2 73.7 29.3 74.2 29.5C74.7 29.7 75 30 75.4 30.3C75.8 30.6 76 31.1 76.2 31.6C76.4 32.2 76.5 32.7 76.5 33.3ZM75.1 33.3C75.1 32.4 74.9 31.7 74.5 31.2C74.1 30.7 73.6 30.4 72.9 30.4C72.2 30.4 71.7 30.7 71.3 31.2C70.9 31.7 70.7 32.4 70.7 33.3C70.7 34.2 70.9 34.9 71.3 35.4C71.7 35.9 72.2 36.2 72.9 36.2C73.6 36.2 74.1 35.9 74.5 35.4C74.9 34.9 75.1 34.2 75.1 33.3Z" fill="black"/>
<path d="M85.4 33.3C85.4 33.9 85.3 34.4 85.2 34.9C85 35.4 84.8 35.8 84.5 36.2C84.2 36.6 83.8 36.8 83.4 37C83 37.2 82.5 37.3 81.9 37.3C81.5 37.3 81.1 37.2 80.7 37.1C80.4 37 80.1 36.9 79.9 36.8V40H78.5V29.7C78.8 29.6 79.2 29.5 79.7 29.4C80.2 29.3 80.8 29.3 81.4 29.3C82 29.3 82.5 29.4 83 29.6C83.5 29.8 83.9 30.1 84.2 30.4C84.5 30.8 84.8 31.2 85 31.7C85.3 32.1 85.4 32.7 85.4 33.3ZM83.9 33.3C83.9 32.4 83.7 31.7 83.2 31.2C82.7 30.7 82.1 30.5 81.4 30.5C81 30.5 80.7 30.5 80.4 30.5C80.2 30.5 80 30.6 79.8 30.6V35.5C80 35.6 80.2 35.8 80.5 35.9C80.8 36 81.2 36.1 81.5 36.1C81.9 36.1 82.2 36 82.5 35.9C82.8 35.8 83 35.6 83.2 35.3C83.4 35 83.5 34.7 83.6 34.4C83.7 34.1 83.9 33.7 83.9 33.3Z" fill="black"/>
<path d="M92.2 30.6H88.8V37.2H87.4V29.4H92.2V30.6Z" fill="black"/>
<path d="M93.2 33.3C93.2 32.6 93.3 32 93.5 31.5C93.7 31 94 30.6 94.3 30.2C94.6 29.8 95 29.6 95.4 29.4C95.8 29.2 96.3 29.1 96.7 29.1C97.7 29.1 98.6 29.4 99.1 30.1C99.7 30.8 99.9 31.8 99.9 33.1C99.9 33.2 99.9 33.2 99.9 33.3C99.9 33.4 99.9 33.5 99.9 33.6H94.6C94.7 34.4 94.9 35 95.3 35.4C95.7 35.8 96.3 36 97.2 36C97.7 36 98.1 36 98.4 35.9C98.7 35.8 99 35.7 99.2 35.7L99.4 36.9C99.2 37 98.9 37.1 98.5 37.2C98.1 37.3 97.6 37.3 97.1 37.3C96.4 37.3 95.8 37.2 95.3 37C94.8 36.8 94.4 36.5 94.1 36.2C93.8 35.8 93.5 35.4 93.4 34.9C93.3 34.5 93.2 33.9 93.2 33.3ZM98.5 32.6C98.5 32 98.4 31.5 98 31C97.7 30.6 97.2 30.4 96.7 30.4C96.4 30.4 96.1 30.5 95.9 30.6C95.7 30.7 95.4 30.9 95.3 31.1C95.2 31.3 95 31.5 94.9 31.8C94.8 32.1 94.7 32.3 94.7 32.6H98.5Z" fill="black"/>
<path d="M107.1 30.4C107.1 30.7 107 30.9 106.8 31.1C106.6 31.3 106.4 31.4 106.1 31.4C105.8 31.4 105.5 31.3 105.4 31.1C105.2 30.9 105.1 30.7 105.1 30.4C105.1 30.1 105.2 29.9 105.4 29.7C105.6 29.5 105.8 29.4 106.1 29.4C106.4 29.4 106.7 29.5 106.8 29.7C106.9 29.9 107.1 30.2 107.1 30.4ZM107.1 36.4C107.1 36.7 107 36.9 106.8 37.1C106.6 37.3 106.4 37.4 106.1 37.4C105.8 37.4 105.5 37.3 105.4 37.1C105.2 36.9 105.1 36.7 105.1 36.4C105.1 36.1 105.2 35.9 105.4 35.7C105.6 35.5 105.8 35.4 106.1 35.4C106.4 35.4 106.7 35.5 106.8 35.7C106.9 35.9 107.1 36.1 107.1 36.4Z" fill="black"/>
<path d="M110.2 32.7C110.2 31.4 110 30.2 109.6 29.1C109.2 28 108.7 27 108 26.1L109 25.4C109.8 26.4 110.4 27.4 110.9 28.7C111.4 29.9 111.6 31.3 111.6 32.7C111.6 34.1 111.4 35.4 110.9 36.7C110.4 37.9 109.8 39 109 40L108 39.3C108.7 38.4 109.3 37.4 109.6 36.3C110.1 35.2 110.2 34 110.2 32.7Z" fill="black"/>
</svg>
