<svg width="127" height="50" viewBox="0 0 127 50" fill="none" xmlns="http://www.w3.org/2000/svg">
<g clip-path="url(#clip0)">
<path d="M55 0H112C120.3 0 127 6.7 127 15C127 23.3 120.3 30 112 30H55C46.7 30 40 23.3 40 15C40 6.7 46.7 0 55 0Z" fill="#7ECEF0"/>
<path d="M45.4 39.3L15.4 47.3C12.8 48 10.6 45.2 11.9 42.9L26.9 15.7C28.2 13.4 31.6 13.7 32.5 16.2L35.9 26.3C36.1 27 36.6 27.5 37.2 27.9L46.4 33.7C48.5 35.2 48 38.6 45.4 39.3Z" fill="#7ECEF0"/>
<path d="M49.4 19.3V9.60001H50.7V16.8C51 16.3 51.4 15.7 51.8 15.1C52.2 14.5 52.7 13.8 53.2 13.2C53.7 12.5 54.2 11.9 54.7 11.3C55.2 10.7 55.7 10.1 56.1 9.70001H57.2V19.4H55.9V11.8C55.6 12.1 55.4 12.4 55 12.8C54.7 13.2 54.4 13.6 54 14.1C53.6 14.6 53.3 15 53 15.5C52.7 16 52.3 16.4 52 16.9C51.7 17.4 51.4 17.8 51.1 18.2C50.8 18.6 50.6 19 50.4 19.4H49.4V19.3Z" fill="black"/>
<path d="M65.4 19.3H64.1V16.1H60.7V19.3H59.4V12H60.7V15H64.1V12H65.4V19.3Z" fill="black"/>
<path d="M72.8 12V13.1H70.4V19.3H69.1V13.1H66.7V12H72.8Z" fill="black"/>
<path d="M73.8 15.7C73.8 15.1 73.9 14.5 74.1 14C74.3 13.5 74.5 13.1 74.8 12.8C75.1 12.5 75.5 12.2 75.9 12.1C76.3 11.9 76.7 11.9 77.1 11.9C78.1 11.9 78.8 12.2 79.4 12.8C80 13.4 80.2 14.3 80.2 15.6C80.2 15.7 80.2 15.7 80.2 15.8C80.2 15.9 80.2 16 80.2 16H75.2C75.3 16.8 75.5 17.3 75.9 17.7C76.3 18.1 76.9 18.3 77.7 18.3C78.2 18.3 78.5 18.3 78.9 18.2C79.3 18.1 79.4 18 79.6 18L79.8 19.1C79.6 19.2 79.4 19.3 79 19.4C78.6 19.5 78.2 19.5 77.6 19.5C77 19.5 76.4 19.4 76 19.2C75.6 19 75.2 18.7 74.9 18.4C74.6 18.1 74.4 17.7 74.2 17.2C73.8 16.8 73.8 16.2 73.8 15.7ZM78.8 15C78.8 14.4 78.7 13.9 78.4 13.6C78 13.2 77.6 13 77.1 13C76.8 13 76.5 13.1 76.3 13.2C76.1 13.3 75.9 13.5 75.7 13.7C75.5 13.9 75.4 14.1 75.3 14.3C75.2 14.5 75.2 14.8 75.1 15H78.8Z" fill="black"/>
<path d="M88.4 15.7C88.4 16.3 88.3 16.8 88.2 17.2C88.1 17.7 87.8 18.1 87.6 18.4C87.3 18.7 87 19 86.6 19.2C86.2 19.4 85.7 19.5 85.2 19.5C84.8 19.5 84.4 19.4 84.1 19.3C83.8 19.2 83.5 19.1 83.4 19V21.9H82V12.3C82.3 12.2 82.7 12.1 83.2 12.1C83.7 12.1 84.2 12 84.8 12C85.4 12 85.9 12.1 86.3 12.3C86.7 12.5 87.1 12.7 87.4 13.1C87.7 13.4 88 13.8 88.1 14.3C88.3 14.6 88.4 15.1 88.4 15.7ZM87 15.7C87 14.9 86.8 14.2 86.4 13.7C86 13.2 85.4 13 84.7 13C84.3 13 84 13 83.8 13C83.6 13 83.4 13.1 83.3 13.1V17.7C83.5 17.8 83.7 18 84 18.1C84.3 18.2 84.6 18.3 85 18.3C85.4 18.3 85.7 18.2 86 18.1C86.3 18 86.5 17.8 86.7 17.5C86.9 17.2 87 17 87.1 16.7C87 16.4 87 16.1 87 15.7Z" fill="black"/>
<path d="M89.8 15.7C89.8 15.1 89.9 14.5 90.1 14C90.3 13.5 90.5 13.1 90.8 12.8C91.1 12.5 91.5 12.2 91.9 12.1C92.3 11.9 92.7 11.9 93.1 11.9C94.1 11.9 94.8 12.2 95.4 12.8C96 13.4 96.2 14.3 96.2 15.6C96.2 15.7 96.2 15.7 96.2 15.8C96.2 15.9 96.2 16 96.2 16H91.2C91.3 16.8 91.5 17.3 91.9 17.7C92.3 18.1 92.9 18.3 93.7 18.3C94.2 18.3 94.5 18.3 94.9 18.2C95.3 18.1 95.4 18 95.6 18L95.8 19.1C95.6 19.2 95.4 19.3 95 19.4C94.6 19.5 94.2 19.5 93.6 19.5C93 19.5 92.4 19.4 92 19.2C91.6 19 91.2 18.7 90.9 18.4C90.6 18.1 90.4 17.7 90.2 17.2C89.9 16.8 89.8 16.2 89.8 15.7ZM94.8 15C94.8 14.4 94.7 13.9 94.4 13.6C94.1 13.2 93.7 13 93.1 13C92.8 13 92.5 13.1 92.3 13.2C92.1 13.3 91.9 13.5 91.7 13.7C91.5 13.9 91.4 14.1 91.3 14.3C91.2 14.5 91.2 14.8 91.1 15H94.8Z" fill="black"/>
<path d="M101.2 19.5C100.6 19.5 100.1 19.4 99.7 19.2C99.3 19 98.9 18.8 98.6 18.4C98.3 18.1 98.1 17.7 97.9 17.2C97.8 16.7 97.7 16.2 97.7 15.7C97.7 15.1 97.8 14.6 97.9 14.2C98 13.8 98.3 13.3 98.6 13C98.9 12.7 99.3 12.4 99.7 12.2C100.1 12 100.6 11.9 101.1 11.9C101.4 11.9 101.8 11.9 102.1 12C102.4 12.1 102.7 12.1 103 12.3L102.7 13.4C102.5 13.3 102.3 13.2 102 13.2C101.7 13.1 101.5 13.1 101.2 13.1C100.5 13.1 99.9 13.3 99.5 13.8C99.1 14.3 98.9 14.9 98.9 15.8C98.9 16.2 98.9 16.6 99 16.9C99.1 17.2 99.2 17.5 99.4 17.7C99.6 17.9 99.8 18.1 100.1 18.2C100.4 18.3 100.8 18.4 101.2 18.4C101.5 18.4 101.9 18.4 102.1 18.3C102.4 18.2 102.6 18.2 102.8 18.1L103 19.2C102.9 19.2 102.8 19.3 102.7 19.3C102.6 19.3 102.4 19.4 102.2 19.4C102 19.4 101.8 19.5 101.6 19.5C101.6 19.5 101.4 19.5 101.2 19.5Z" fill="black"/>
<path d="M110.5 19.3H109.2V16.1H105.8V19.3H104.5V12H105.8V15H109.2V12H110.5V19.3Z" fill="black"/>
<path d="M119.2 15.7C119.2 16.3 119.1 16.8 118.9 17.3C118.7 17.8 118.5 18.2 118.2 18.5C117.9 18.8 117.5 19.1 117.1 19.3C116.7 19.5 116.2 19.6 115.7 19.6C115.2 19.6 114.7 19.5 114.3 19.3C113.9 19.1 113.5 18.9 113.2 18.5C112.9 18.1 112.7 17.8 112.5 17.3C112.3 16.8 112.2 16.3 112.2 15.7C112.2 15.1 112.3 14.6 112.5 14.1C112.7 13.6 112.9 13.2 113.2 12.9C113.5 12.6 113.9 12.3 114.3 12.1C114.7 11.9 115.2 11.8 115.7 11.8C116.2 11.8 116.7 11.9 117.1 12.1C117.5 12.3 117.9 12.5 118.2 12.9C118.5 13.3 118.7 13.6 118.9 14.1C119.1 14.6 119.2 15.1 119.2 15.7ZM117.8 15.7C117.8 14.9 117.6 14.2 117.2 13.7C116.8 13.2 116.3 13 115.7 13C115.1 13 114.6 13.2 114.2 13.7C113.8 14.2 113.6 14.8 113.6 15.7C113.6 16.5 113.8 17.2 114.2 17.7C114.6 18.2 115.1 18.4 115.7 18.4C116.3 18.4 116.8 18.2 117.2 17.7C117.7 17.2 117.8 16.5 117.8 15.7Z" fill="black"/>
</g>
<defs>
<clipPath id="clip0">
<rect width="127" height="50" fill="white"/>
</clipPath>
</defs>
</svg>
