<svg width="105" height="67" viewBox="0 0 105 67" fill="none" xmlns="http://www.w3.org/2000/svg">
<g clip-path="url(#clip0)">
<path d="M38 37H90C98.3 37 105 43.7 105 52C105 60.3 98.3 67 90 67H38C29.7 67 23 60.3 23 52C23 43.7 29.7 37 38 37Z" fill="#030135"/>
<path d="M10.9 45.6L2.89998 15.6C2.19998 13 4.99998 10.8 7.29998 12.1L34.5 27.1C36.8 28.4 36.5 31.8 34 32.7L23.8 36C23.1 36.2 22.6 36.7 22.2 37.3L16.4 46.5C15 48.7 11.6 48.2 10.9 45.6Z" fill="#030135"/>
<path d="M48.5 51.9H50.3V57.8C50.2 57.8 49.9 57.9 49.7 58C49.4 58.1 49.1 58.1 48.8 58.2C48.5 58.3 48.1 58.3 47.6 58.4C47.2 58.4 46.7 58.5 46.3 58.5C45.4 58.5 44.6 58.4 43.9 58.1C43.2 57.8 42.6 57.4 42 56.8C41.5 56.2 41.1 55.6 40.8 54.8C40.5 54 40.4 53.1 40.4 52C40.4 50.9 40.6 50 40.9 49.2C41.2 48.4 41.7 47.7 42.2 47.1C42.7 46.5 43.4 46.1 44.1 45.8C44.8 45.5 45.6 45.4 46.4 45.4C47 45.4 47.5 45.4 47.9 45.5C48.3 45.6 48.7 45.7 49 45.8C49.3 45.9 49.6 46 49.8 46.1C50 46.2 50.1 46.3 50.2 46.3L49.6 47.8C49.2 47.6 48.8 47.4 48.2 47.2C47.6 47 47 47 46.4 47C45.8 47 45.2 47.1 44.7 47.3C44.2 47.5 43.7 47.9 43.4 48.3C43 48.7 42.7 49.3 42.5 49.9C42.3 50.5 42.2 51.2 42.2 52C42.2 52.7 42.3 53.4 42.5 54C42.7 54.6 42.9 55.1 43.3 55.6C43.7 56 44.1 56.4 44.6 56.6C45.1 56.8 45.7 57 46.5 57C47 57 47.4 57 47.8 56.9C48.2 56.8 48.4 56.8 48.6 56.7V51.9H48.5Z" fill="white"/>
<path d="M56.4 48.5C56.5 48.5 56.7 48.5 56.9 48.5C57.1 48.5 57.3 48.5 57.5 48.6C57.7 48.6 57.8 48.7 58 48.7C58.2 48.7 58.3 48.8 58.3 48.8L58 50.2C57.9 50.2 57.6 50.1 57.3 50C57 49.9 56.6 49.9 56.1 49.9C55.8 49.9 55.5 49.9 55.2 50C54.9 50.1 54.7 50.1 54.6 50.1V58H52.9V49C53.3 48.9 53.8 48.7 54.4 48.6C55 48.5 55.6 48.5 56.4 48.5Z" fill="white"/>
<path d="M59.4 53.4C59.4 52.6 59.5 51.8 59.8 51.2C60.1 50.6 60.4 50.1 60.8 49.7C61.2 49.3 61.7 49 62.2 48.8C62.7 48.6 63.3 48.5 63.8 48.5C65.1 48.5 66 48.9 66.7 49.7C67.4 50.5 67.7 51.7 67.7 53.3C67.7 53.4 67.7 53.5 67.7 53.6C67.7 53.7 67.7 53.8 67.7 53.9H61.2C61.3 54.9 61.6 55.6 62.1 56.1C62.6 56.6 63.4 56.9 64.4 56.9C65 56.9 65.5 56.8 65.9 56.7C66.3 56.6 66.6 56.5 66.8 56.4L67 57.8C66.8 57.9 66.4 58 65.9 58.1C65.4 58.2 64.8 58.3 64.2 58.3C63.4 58.3 62.7 58.2 62.1 57.9C61.5 57.7 61 57.3 60.6 56.9C60.2 56.5 59.9 55.9 59.7 55.4C59.5 54.8 59.4 54.1 59.4 53.4ZM65.8 52.5C65.8 51.7 65.6 51.1 65.2 50.6C64.8 50.1 64.3 49.9 63.6 49.9C63.2 49.9 62.9 50 62.6 50.1C62.3 50.3 62.1 50.4 61.8 50.7C61.6 50.9 61.4 51.2 61.3 51.5C61.2 51.8 61.1 52.1 61.1 52.5H65.8Z" fill="white"/>
<path d="M73.1 48.4C73.8 48.4 74.3 48.5 74.8 48.7C75.3 48.9 75.6 49.1 75.9 49.4C76.2 49.7 76.4 50.1 76.5 50.5C76.6 50.9 76.7 51.4 76.7 52V57.9C76.6 57.9 76.4 58 76.1 58C75.8 58 75.5 58.1 75.2 58.1C74.9 58.1 74.5 58.2 74.1 58.2C73.7 58.2 73.3 58.2 73 58.2C72.5 58.2 72 58.1 71.5 58C71 57.9 70.7 57.7 70.3 57.5C69.9 57.3 69.7 57 69.5 56.6C69.3 56.2 69.2 55.7 69.2 55.2C69.2 54.7 69.3 54.2 69.5 53.9C69.7 53.5 70 53.2 70.4 53C70.8 52.8 71.2 52.6 71.7 52.5C72.2 52.4 72.7 52.3 73.2 52.3C73.4 52.3 73.5 52.3 73.7 52.3C73.9 52.3 74.1 52.3 74.2 52.4C74.4 52.4 74.5 52.5 74.6 52.5C74.7 52.5 74.8 52.5 74.9 52.6V52.1C74.9 51.8 74.9 51.5 74.8 51.3C74.7 51 74.6 50.8 74.5 50.6C74.3 50.4 74.1 50.2 73.9 50.1C73.6 50 73.3 49.9 72.8 49.9C72.2 49.9 71.8 49.9 71.3 50C70.9 50.1 70.6 50.2 70.4 50.2L70.2 48.8C70.4 48.7 70.8 48.6 71.3 48.5C71.8 48.4 72.5 48.4 73.1 48.4ZM73.2 56.9C73.6 56.9 74 56.9 74.3 56.9C74.6 56.9 74.9 56.8 75.1 56.8V54C75 53.9 74.8 53.9 74.5 53.8C74.2 53.8 73.9 53.7 73.5 53.7C73.2 53.7 73 53.7 72.7 53.8C72.4 53.8 72.2 53.9 71.9 54C71.7 54.1 71.5 54.3 71.3 54.5C71.1 54.7 71.1 55 71.1 55.3C71.1 55.9 71.3 56.3 71.7 56.6C72 56.8 72.5 56.9 73.2 56.9Z" fill="white"/>
<path d="M81.1 48.7H84.7V50.1H81.1V54.4C81.1 54.9 81.1 55.3 81.2 55.6C81.3 55.9 81.4 56.1 81.5 56.3C81.6 56.5 81.8 56.6 82 56.7C82.2 56.8 82.5 56.8 82.8 56.8C83.3 56.8 83.7 56.7 84 56.6C84.3 56.5 84.5 56.4 84.6 56.4L84.9 57.8C84.7 57.9 84.4 58 84 58.1C83.6 58.2 83.1 58.3 82.6 58.3C82 58.3 81.4 58.2 81 58.1C80.6 57.9 80.2 57.7 80 57.4C79.7 57.1 79.6 56.7 79.5 56.2C79.4 55.7 79.3 55.2 79.3 54.5V46L81 45.7V48.7H81.1Z" fill="white"/>
<path d="M89 57.1C89 57.4 88.9 57.7 88.7 58C88.5 58.3 88.2 58.4 87.8 58.4C87.4 58.4 87.1 58.3 86.9 58C86.7 57.8 86.6 57.5 86.6 57.1C86.6 56.7 86.7 56.5 86.9 56.2C87.1 56 87.4 55.8 87.8 55.8C88.2 55.8 88.5 55.9 88.7 56.2C88.9 56.5 89 56.8 89 57.1ZM88.7 48.9C88.7 49.9 88.7 50.8 88.6 51.7C88.5 52.5 88.4 53.4 88.3 54.2H87.2C87.1 53.4 87 52.6 86.9 51.7C86.8 50.9 86.8 50 86.8 48.9V45.5H88.6V48.9H88.7Z" fill="white"/>
</g>
<defs>
<clipPath id="clip0">
<rect width="105" height="67" fill="white"/>
</clipPath>
</defs>
</svg>
