<svg width="108" height="50" viewBox="0 0 108 50" fill="none" xmlns="http://www.w3.org/2000/svg">
<g clip-path="url(#clip0)">
<path d="M15 0H59C67.3 0 74 6.7 74 15C74 23.3 67.3 30 59 30H15C6.7 30 0 23.3 0 15C0 6.7 6.7 0 15 0Z" fill="#EB3048"/>
<path d="M88.5 16L104 43C105.3 45.3 103.2 48.1 100.6 47.5L70.5 40C67.9 39.4 67.3 36 69.5 34.5L78.4 28.6C79 28.2 79.4 27.6 79.6 27L82.8 16.6C83.7 14.1 87.2 13.7 88.5 16Z" fill="#EB3048"/>
<path d="M21.5 21.4C20.6 21.4 19.7 21.2 19 20.9C18.2 20.6 17.6 20.2 17 19.6C16.5 19 16 18.3 15.7 17.4C15.4 16.5 15.3 15.6 15.3 14.5C15.3 13.4 15.5 12.4 15.8 11.6C16.1 10.7 16.6 10 17.2 9.40001C17.8 8.80001 18.4 8.40001 19.2 8.10001C20 7.80001 20.8 7.60001 21.6 7.60001C22.1 7.60001 22.6 7.60001 23.1 7.70001C23.5 7.80001 23.9 7.90001 24.2 8.00001C24.5 8.10001 24.8 8.20001 25 8.30001C25.2 8.40001 25.3 8.50001 25.4 8.50001L24.9 10C24.8 9.90001 24.6 9.80001 24.4 9.80001C24.2 9.70001 23.9 9.60001 23.7 9.50001C23.4 9.40001 23.1 9.30001 22.8 9.30001C22.5 9.20001 22.2 9.20001 21.8 9.20001C21.1 9.20001 20.5 9.30001 19.9 9.60001C19.3 9.80001 18.9 10.2 18.5 10.6C18.1 11 17.8 11.6 17.6 12.3C17.4 13 17.3 13.7 17.3 14.5C17.3 15.3 17.4 16 17.6 16.6C17.8 17.2 18.1 17.8 18.4 18.3C18.8 18.8 19.2 19.1 19.8 19.4C20.4 19.7 21 19.8 21.7 19.8C22.5 19.8 23.3 19.7 23.8 19.5C24.4 19.3 24.8 19.2 25.1 19L25.6 20.5C25.5 20.6 25.4 20.6 25.1 20.7C24.8 20.8 24.6 20.9 24.2 21C23.9 21.1 23.5 21.2 23 21.2C22.5 21.4 22 21.4 21.5 21.4Z" fill="white"/>
<path d="M35.9 16.2C35.9 17 35.8 17.7 35.6 18.3C35.4 18.9 35.1 19.5 34.6 19.9C34.1 20.3 33.7 20.7 33.1 21C32.5 21.2 31.9 21.4 31.2 21.4C30.5 21.4 30 21.2 29.4 21C28.8 20.8 28.3 20.4 27.9 19.9C27.5 19.4 27.2 18.9 26.9 18.3C26.7 17.7 26.6 17 26.6 16.2C26.6 15.4 26.7 14.7 26.9 14.1C27.1 13.5 27.4 12.9 27.9 12.5C28.4 12.1 28.8 11.7 29.4 11.4C30 11.2 30.6 11 31.3 11C32 11 32.6 11.1 33.2 11.4C33.8 11.6 34.3 12 34.7 12.5C35.1 13 35.4 13.5 35.7 14.1C36 14.7 35.9 15.4 35.9 16.2ZM34.1 16.2C34.1 15.1 33.9 14.2 33.3 13.5C32.8 12.8 32.1 12.5 31.3 12.5C30.5 12.5 29.8 12.8 29.3 13.5C28.8 14.2 28.5 15 28.5 16.2C28.5 17.3 28.7 18.2 29.3 18.9C29.8 19.6 30.5 19.9 31.3 19.9C32.1 19.9 32.8 19.6 33.3 18.9C33.8 18.2 34.1 17.3 34.1 16.2Z" fill="white"/>
<path d="M47.1 16.2C47.1 17 47 17.7 46.8 18.3C46.6 18.9 46.3 19.5 45.8 19.9C45.3 20.3 44.9 20.7 44.3 21C43.7 21.2 43.1 21.4 42.4 21.4C41.7 21.4 41.1 21.3 40.5 21C39.9 20.8 39.4 20.4 39 19.9C38.6 19.4 38.3 18.9 38 18.3C37.8 17.7 37.7 17 37.7 16.2C37.7 15.4 37.8 14.7 38 14.1C38.2 13.5 38.5 12.9 39 12.5C39.5 12.1 39.9 11.7 40.5 11.4C41.1 11.2 41.7 11 42.4 11C43.1 11 43.7 11.1 44.3 11.4C44.9 11.6 45.4 12 45.8 12.5C46.2 13 46.5 13.5 46.8 14.1C47.1 14.7 47.1 15.4 47.1 16.2ZM45.3 16.2C45.3 15.1 45.1 14.2 44.5 13.5C44 12.8 43.3 12.5 42.5 12.5C41.7 12.5 41 12.8 40.5 13.5C40 14.2 39.7 15 39.7 16.2C39.7 17.3 39.9 18.2 40.5 18.9C41 19.6 41.7 19.9 42.5 19.9C43.3 19.9 44 19.6 44.5 18.9C45 18.2 45.3 17.3 45.3 16.2Z" fill="white"/>
<path d="M52.6 21.3C51.5 21.3 50.7 21 50.3 20.6C49.9 20.2 49.6 19.5 49.6 18.5V6.69999L51.4 6.39999V18.3C51.4 18.6 51.4 18.8 51.5 19C51.5 19.2 51.6 19.3 51.7 19.5C51.8 19.6 52 19.7 52.2 19.8C52.4 19.9 52.6 19.9 52.9 19.9L52.6 21.3Z" fill="white"/>
<path d="M57.2 20.1C57.2 20.4 57.1 20.7 56.9 21C56.7 21.3 56.4 21.4 56 21.4C55.6 21.4 55.2 21.2 55 21C54.8 20.7 54.7 20.4 54.7 20.1C54.7 19.8 54.8 19.5 55 19.2C55.2 18.9 55.5 18.8 55.9 18.8C56.3 18.8 56.6 18.9 56.8 19.2C57.1 19.5 57.2 19.7 57.2 20.1ZM56.9 11.5C56.9 12.6 56.9 13.5 56.8 14.4C56.7 15.3 56.6 16.1 56.5 17H55.4C55.3 16.1 55.2 15.3 55.1 14.4C55 13.5 55 12.6 55 11.5V7.89999H56.9V11.5Z" fill="white"/>
</g>
<defs>
<clipPath id="clip0">
<rect width="108" height="50" fill="white"/>
</clipPath>
</defs>
</svg>
