<svg id="Layer_1" data-name="Layer 1" xmlns="http://www.w3.org/2000/svg" viewBox="0 0 34.05 23.99"><defs><style>.cls-1{fill:#1a222b;}.cls-2{fill:#eb3048;}</style></defs><title>Artboard 3</title><path class="cls-1" d="M8,13l-7.26-3C.32,9.78-.08,9.63,0,9.09a1.88,1.88,0,0,1,.24-.18C5.48,6.73,10.69,4.56,15.9,2.36a3.41,3.41,0,0,1,2.81.24C21.58,3.8,24.46,5,27.32,6.19c2.24.95,4.47,1.93,6.7,2.9.12.61-.37.72-.77.9-2.43,1.09-2.43,1.09-2.28,3.76a1.33,1.33,0,0,0,.24.75c.7,1,.44,2.22.48,3.31,0,.78-1.07.74-1.78.62s-1-.45-1-1.33c.15-1.72,1-3.31.79-5.08,0-.14,0-.27,0-.51L26.08,13a8.31,8.31,0,0,1,0-1.22c.29-2.89-1-3.5-3-4.26a18.9,18.9,0,0,0-8.58-.77A11.83,11.83,0,0,0,9.79,8,2.85,2.85,0,0,0,8,11,15.72,15.72,0,0,1,8,13Z"/><path class="cls-2" d="M8,16.53c1.24-2.75,5.3-3,7.34-1.59a2.45,2.45,0,0,0,3.32,0,5.69,5.69,0,0,1,5.45-.29A3.71,3.71,0,0,1,26,16.53a4,4,0,0,1-1.92,4.1,22.38,22.38,0,0,1-6.43,3.25,2,2,0,0,1-1.29,0A22.38,22.38,0,0,1,10,20.63,4,4,0,0,1,8,16.53Z"/><path class="cls-1" d="M34,8.47c-2.72-1.18-4.86-2.11-6.7-2.89-2.86-1.22-5.74-2.4-8.61-3.6a3.41,3.41,0,0,0-2.81-.23Q8.08,5,.27,8.29A1.88,1.88,0,0,0,0,8.47c0-2-.27-1.58,1.51-2.32q7-2.9,13.9-5.82a4,4,0,0,1,3.17,0q6.95,2.91,13.9,5.82C34.29,6.89,34.06,6.49,34,8.47Z"/></svg>