<svg id="Layer_1" data-name="Layer 1" xmlns="http://www.w3.org/2000/svg" viewBox="0 0 103.95 23.99"><defs><style>.cls-1{fill:#1a222b;}.cls-2{fill:#eb3048;}</style></defs><title>Artboard 2</title><path class="cls-1" d="M41.62,0V17.17H38.81V0Z"/><path class="cls-1" d="M49.31,5.73a6.57,6.57,0,0,1,2.42.42,5,5,0,0,1,1.79,1.21,5.09,5.09,0,0,1,1.11,1.89A7.48,7.48,0,0,1,55,11.74a7,7,0,0,1-.38,2.34,5.29,5.29,0,0,1-1.12,1.86,4.93,4.93,0,0,1-1.79,1.21,7,7,0,0,1-4.84,0,5.06,5.06,0,0,1-1.8-1.21A5.2,5.2,0,0,1,44,14.1a6.91,6.91,0,0,1-.39-2.36A7.5,7.5,0,0,1,44,9.24a5.33,5.33,0,0,1,1.11-1.9,4.91,4.91,0,0,1,1.8-1.2A6.9,6.9,0,0,1,49.31,5.73Zm-2.8,6a11.28,11.28,0,0,0,.12,1.55,6.23,6.23,0,0,0,.42,1.62,3.68,3.68,0,0,0,.85,1.27,1.93,1.93,0,0,0,1.41.52,2.21,2.21,0,0,0,1.06-.24,2.41,2.41,0,0,0,.75-.64,3.43,3.43,0,0,0,.49-.93,8.06,8.06,0,0,0,.29-1.07c.06-.37.11-.73.14-1.09s0-.69,0-1,0-.65,0-1S52,10,51.9,9.59a7.71,7.71,0,0,0-.29-1.1,3.62,3.62,0,0,0-.49-1,2.57,2.57,0,0,0-.76-.67,2.09,2.09,0,0,0-1-.25,1.85,1.85,0,0,0-1.39.55,3.75,3.75,0,0,0-.85,1.34,7.68,7.68,0,0,0-.44,1.68A11.78,11.78,0,0,0,46.51,11.74Z"/><path class="cls-1" d="M55.49,6.19h3.14l3.63,7.2L65,6.19h1.55L61.18,17.52Z"/><path class="cls-1" d="M67.27,11.89a8,8,0,0,1,.39-2.58,5.46,5.46,0,0,1,1.17-1.95,5.14,5.14,0,0,1,1.9-1.22,7.16,7.16,0,0,1,2.58-.43,5.1,5.1,0,0,1,2.19.45,4.83,4.83,0,0,1,1.63,1.21,5.12,5.12,0,0,1,1,1.8,6.51,6.51,0,0,1,.35,2.18v.13H70.25a1.48,1.48,0,0,0,0,.21v.19a7,7,0,0,0,.21,1.72,4.89,4.89,0,0,0,.68,1.5,3.64,3.64,0,0,0,1.18,1.06,3.37,3.37,0,0,0,1.7.4,3.89,3.89,0,0,0,1.32-.22,5,5,0,0,0,1.17-.6,6,6,0,0,0,1-.89,7,7,0,0,0,.79-1.09v2.15a4.54,4.54,0,0,1-1.09.79,7,7,0,0,1-1.26.53,8,8,0,0,1-1.36.28,10.25,10.25,0,0,1-1.33.09,7.12,7.12,0,0,1-2.41-.39,5.46,5.46,0,0,1-1.89-1.11,4.94,4.94,0,0,1-1.23-1.79A6.29,6.29,0,0,1,67.27,11.89Zm3-1.28h5.34a7.13,7.13,0,0,0-.12-1.2,5.82,5.82,0,0,0-.38-1.33A3.31,3.31,0,0,0,74.43,7a1.58,1.58,0,0,0-1.12-.43,1.7,1.7,0,0,0-.58.11,2.22,2.22,0,0,0-.55.29,3.56,3.56,0,0,0-.48.39,3.39,3.39,0,0,0-.4.45,4.65,4.65,0,0,0-.64,1.28A10.16,10.16,0,0,0,70.31,10.61Z"/><path class="cls-1" d="M80.5,6.14l2.24,1.24H83A3.62,3.62,0,0,1,84.4,6.1a4.51,4.51,0,0,1,1.9-.39A6.15,6.15,0,0,1,88,5.94a3.75,3.75,0,0,1,1.36.71,3.16,3.16,0,0,1,.9,1.22,4.16,4.16,0,0,1,.33,1.72v7.58H87.78V9.44a4.77,4.77,0,0,0-.11-1,2.83,2.83,0,0,0-.37-.89,2.24,2.24,0,0,0-.65-.65,1.78,1.78,0,0,0-1-.26,2,2,0,0,0-1,.27,2.4,2.4,0,0,0-.74.68,3.08,3.08,0,0,0-.45.93,3.75,3.75,0,0,0-.15,1.05v7.59H80.5Z"/><path class="cls-1" d="M92,21.17a2.32,2.32,0,0,1,.2-1,2.56,2.56,0,0,1,.54-.76,3.09,3.09,0,0,1,.76-.57,4.18,4.18,0,0,1,.91-.35,4.39,4.39,0,0,1-.79-.35,2.48,2.48,0,0,1-.64-.52,2.09,2.09,0,0,1-.41-.73,2.76,2.76,0,0,1-.15-1,2.27,2.27,0,0,1,.45-1.42,3.72,3.72,0,0,1,1.14-1,4,4,0,0,1-1.13-1.35,3.92,3.92,0,0,1-.43-1.9,4,4,0,0,1,.48-2,4.29,4.29,0,0,1,1.27-1.44A5.47,5.47,0,0,1,96,6a7.37,7.37,0,0,1,2-.28,6.94,6.94,0,0,1,1.52.16,6.87,6.87,0,0,1,1.41.47,3.61,3.61,0,0,1,.42-1,4.77,4.77,0,0,1,.71-.9,4.19,4.19,0,0,1,.91-.67,2.76,2.76,0,0,1,1-.34V6.34a1.57,1.57,0,0,0-.79-.2,2.1,2.1,0,0,0-.81.17,1.69,1.69,0,0,0-.64.51A4.57,4.57,0,0,1,103,8.28a4,4,0,0,1,.5,2.05,4,4,0,0,1-.48,2,4.24,4.24,0,0,1-1.26,1.4,5.68,5.68,0,0,1-1.78.81,8.05,8.05,0,0,1-2,.26,7.53,7.53,0,0,1-1.71-.19A6.21,6.21,0,0,1,94.69,14a2.2,2.2,0,0,0-.31.3.6.6,0,0,0-.15.4.59.59,0,0,0,.35.5,3.42,3.42,0,0,0,.89.36c.36.09.75.17,1.19.24s.86.11,1.27.14l1.11.09.72,0a8.77,8.77,0,0,1,1.56.28,4.67,4.67,0,0,1,1.33.63,3.1,3.1,0,0,1,.95,1.05,3.28,3.28,0,0,1,.35,1.57,3.47,3.47,0,0,1-.31,1.52,3.73,3.73,0,0,1-.86,1.14,4.47,4.47,0,0,1-1.22.81,9,9,0,0,1-1.46.51,9.92,9.92,0,0,1-1.54.27c-.52.05-1,.08-1.46.08-.29,0-.63,0-1,0A11.3,11.3,0,0,1,95,23.78a7.17,7.17,0,0,1-1.1-.3,4,4,0,0,1-1-.5,2.44,2.44,0,0,1-.67-.76A2.1,2.1,0,0,1,92,21.17Zm3.36-2.41a2.83,2.83,0,0,0-.43.48,3.08,3.08,0,0,0-.33.55,3.63,3.63,0,0,0-.22.6,2.38,2.38,0,0,0-.08.58,1.52,1.52,0,0,0,.32,1,2.45,2.45,0,0,0,.79.63,3.79,3.79,0,0,0,1,.35,5.55,5.55,0,0,0,1,.11,6.24,6.24,0,0,0,2.44-.54,3.16,3.16,0,0,0,1-.73,1.53,1.53,0,0,0,.41-1.1,1.1,1.1,0,0,0-.36-.88,2.16,2.16,0,0,0-1-.48,7.37,7.37,0,0,0-1.37-.23L97,19l-.86-.08C95.87,18.85,95.59,18.81,95.33,18.76ZM98,13.87a2.07,2.07,0,0,0,1.2-.33,2.41,2.41,0,0,0,.78-.84,3.8,3.8,0,0,0,.43-1.14,5.85,5.85,0,0,0,.13-1.23,7,7,0,0,0-.12-1.26,3.8,3.8,0,0,0-.4-1.19A2.53,2.53,0,0,0,99.22,7,2.11,2.11,0,0,0,98,6.65a2,2,0,0,0-1.2.36,2.77,2.77,0,0,0-.8.9,4.11,4.11,0,0,0-.43,1.19,6,6,0,0,0-.13,1.23,5.85,5.85,0,0,0,.13,1.23A4,4,0,0,0,96,12.71a2.57,2.57,0,0,0,.8.84A2.19,2.19,0,0,0,98,13.87Z"/><path class="cls-1" d="M38.9,23.31a.58.58,0,0,0,.17.05.64.64,0,0,0,.2,0,.82.82,0,0,0,.5-.14,1.38,1.38,0,0,0,.33-.47,15.69,15.69,0,0,1-.69-1.49,13.62,13.62,0,0,1-.53-1.6h.59q.06.25.15.57c.06.2.13.41.21.62s.15.43.24.65a5.8,5.8,0,0,0,.27.62c.14-.41.27-.82.38-1.22s.22-.82.31-1.24h.57c-.14.57-.3,1.13-.47,1.65a15,15,0,0,1-.56,1.49,3.87,3.87,0,0,1-.24.46,1.7,1.7,0,0,1-.28.31,1.06,1.06,0,0,1-.35.18,1.4,1.4,0,0,1-.43.06h-.13l-.14,0-.12,0-.08,0Z"/><path class="cls-1" d="M43,19.69v.9a.56.56,0,0,0,.18.48.78.78,0,0,0,.48.14,1.9,1.9,0,0,0,.37,0l.27-.05V19.69h.54v3h-.54V21.55l-.12,0-.18,0-.2,0h-.2a1.74,1.74,0,0,1-.47,0,.78.78,0,0,1-.35-.18.87.87,0,0,1-.24-.32,1.47,1.47,0,0,1-.08-.51v-.9Z"/><path class="cls-1" d="M48.87,19.69v3h-.53V20.42c-.11.14-.24.32-.38.52l-.43.62c-.14.21-.27.42-.4.63s-.24.39-.34.55h-.48v-3h.53v2.19c.1-.17.21-.35.34-.55s.26-.4.4-.6.28-.39.42-.57.27-.34.39-.47Z"/><path class="cls-1" d="M50.89,20.49c0,.39-.06.77-.08,1.16s0,.75-.05,1.09h-.52l0-.75.06-.79.06-.78c0-.25,0-.5.08-.73H51c.12.2.27.48.44.83s.36.77.58,1.23l.58-1.23a6.64,6.64,0,0,1,.44-.83h.5c0,.23.05.48.08.73l.06.78.06.79q0,.39,0,.75H53.2c0-.34,0-.7-.05-1.09s0-.77-.08-1.16c-.07.12-.14.27-.22.44s-.17.34-.25.52-.15.34-.22.5-.13.29-.16.38h-.46c0-.09-.1-.22-.18-.38l-.22-.51c-.08-.18-.17-.35-.25-.52A4.19,4.19,0,0,0,50.89,20.49Z"/><path class="cls-1" d="M58.29,22.81a1.67,1.67,0,0,1-.65-.12,1.29,1.29,0,0,1-.46-.33,1.32,1.32,0,0,1-.29-.5,2.15,2.15,0,0,1-.09-.64,1.93,1.93,0,0,1,.1-.65,1.46,1.46,0,0,1,.29-.5,1.2,1.2,0,0,1,.46-.34,1.48,1.48,0,0,1,.61-.12,2,2,0,0,1,.41,0,1.6,1.6,0,0,1,.39.11l-.12.46a1.1,1.1,0,0,0-.29-.09,1.22,1.22,0,0,0-.34,0,.88.88,0,0,0-.7.29,1.28,1.28,0,0,0-.24.84,1.64,1.64,0,0,0,.05.45.89.89,0,0,0,.18.35.72.72,0,0,0,.31.23,1.17,1.17,0,0,0,.45.08,2.35,2.35,0,0,0,.4,0A1.68,1.68,0,0,0,59,22.2l.08.46-.14.05-.2.05-.23,0Z"/><path class="cls-1" d="M63.12,20.15c0,.12,0,.26,0,.41a3.25,3.25,0,0,1,0,.44c0,.15,0,.29-.07.43a2.46,2.46,0,0,1-.1.41,2.21,2.21,0,0,1-.16.35,1.68,1.68,0,0,1-.24.29,1.33,1.33,0,0,1-.33.21,1.35,1.35,0,0,1-.44.11l-.07-.46a.87.87,0,0,0,.45-.22,1.19,1.19,0,0,0,.27-.38,2.06,2.06,0,0,0,.13-.46c0-.16,0-.34,0-.52s0-.37,0-.55v-.52h2v3h-.55V20.15Z"/><path class="cls-1" d="M66.62,21h.67a1.6,1.6,0,0,1,.15-.55,1.33,1.33,0,0,1,.3-.42,1.17,1.17,0,0,1,.42-.27,1.21,1.21,0,0,1,.5-.1,1.31,1.31,0,0,1,.56.12,1.16,1.16,0,0,1,.44.32,1.44,1.44,0,0,1,.3.51,2.2,2.2,0,0,1,0,1.31,1.53,1.53,0,0,1-.3.51,1.28,1.28,0,0,1-.44.32,1.44,1.44,0,0,1-1.08,0,1.25,1.25,0,0,1-.72-.73,1.89,1.89,0,0,1-.14-.59h-.66v1.35h-.55v-3h.55Zm2.88.26a1.37,1.37,0,0,0-.23-.82.76.76,0,0,0-1.21,0,1.37,1.37,0,0,0-.23.82,1.33,1.33,0,0,0,.23.82.76.76,0,0,0,1.21,0A1.33,1.33,0,0,0,69.5,21.21Z"/><path class="cls-1" d="M71.83,20a1.42,1.42,0,0,1,.42-.23,1.6,1.6,0,0,1,.47-.08,1.2,1.2,0,0,1,1,.41,1.64,1.64,0,0,1,.34,1.11,2.27,2.27,0,0,1-.08.59,1.49,1.49,0,0,1-.26.5,1.35,1.35,0,0,1-.43.35,1.54,1.54,0,0,1-.63.12,1.41,1.41,0,0,1-.69-.15,1.16,1.16,0,0,1-.44-.41,2,2,0,0,1-.23-.62,4.47,4.47,0,0,1-.06-.75,5.73,5.73,0,0,1,.07-.95,2.27,2.27,0,0,1,.27-.77,1.64,1.64,0,0,1,.53-.55,2.17,2.17,0,0,1,.89-.3l.28,0,.21,0,.16,0,.16,0,.06.49-.08,0h-.13l-.21,0-.34,0a1.52,1.52,0,0,0-.89.36A1.35,1.35,0,0,0,71.83,20Zm0,.93a2.82,2.82,0,0,0,0,.52,1.42,1.42,0,0,0,.13.44.92.92,0,0,0,.26.29.75.75,0,0,0,.43.11.89.89,0,0,0,.38-.08.83.83,0,0,0,.26-.23,1.22,1.22,0,0,0,.14-.35,1.42,1.42,0,0,0,0-.42,1.58,1.58,0,0,0,0-.38.93.93,0,0,0-.13-.34A.75.75,0,0,0,73,20.3a.87.87,0,0,0-.42-.09,1.08,1.08,0,0,0-.47.11,1,1,0,0,0-.35.25,1,1,0,0,0,0,.19Z"/><path class="cls-1" d="M78,21.21a1.91,1.91,0,0,1-.1.66,1.53,1.53,0,0,1-.3.51,1.42,1.42,0,0,1-.45.32,1.58,1.58,0,0,1-1.16,0,1.42,1.42,0,0,1-.45-.32,1.53,1.53,0,0,1-.3-.51,2.2,2.2,0,0,1,0-1.31,1.44,1.44,0,0,1,.3-.51,1.28,1.28,0,0,1,.45-.32,1.46,1.46,0,0,1,1.16,0,1.28,1.28,0,0,1,.45.32,1.44,1.44,0,0,1,.3.51A1.93,1.93,0,0,1,78,21.21Zm-.57,0a1.31,1.31,0,0,0-.23-.82.81.81,0,0,0-1.26,0,1.37,1.37,0,0,0-.23.82A1.33,1.33,0,0,0,76,22a.81.81,0,0,0,1.26,0A1.27,1.27,0,0,0,77.45,21.21Z"/><path class="cls-1" d="M80.4,22.79a6.25,6.25,0,0,1-.64,0l-.47-.07v-3l.47-.08a6.25,6.25,0,0,1,.64,0,3.73,3.73,0,0,1,.47,0,1.57,1.57,0,0,1,.4.14.8.8,0,0,1,.29.26.79.79,0,0,1,.1.42.61.61,0,0,1-.11.38.68.68,0,0,1-.3.25.83.83,0,0,1,.41.26.69.69,0,0,1,.15.48.79.79,0,0,1-.41.75,1.27,1.27,0,0,1-.45.16A3.24,3.24,0,0,1,80.4,22.79Zm0-1.85.29,0a.78.78,0,0,0,.23-.08.4.4,0,0,0,.15-.14.38.38,0,0,0,.06-.22.36.36,0,0,0-.07-.22.43.43,0,0,0-.19-.13.91.91,0,0,0-.26-.06h-.56l-.23,0v.86Zm-.58,1.39h.59a1.84,1.84,0,0,0,.33,0,.77.77,0,0,0,.27-.08.65.65,0,0,0,.18-.15.49.49,0,0,0,.07-.25.41.41,0,0,0-.07-.25.46.46,0,0,0-.16-.15.67.67,0,0,0-.25-.08,1.55,1.55,0,0,0-.31,0h-.65Z"/><path class="cls-1" d="M83,22.67v-3h.55v1.17l.13,0,.17,0,.19,0h.18a1.86,1.86,0,0,1,.48.05,1.17,1.17,0,0,1,.39.18.91.91,0,0,1,.27.31,1,1,0,0,1,.1.45,1.09,1.09,0,0,1-.1.47.76.76,0,0,1-.27.32,1.24,1.24,0,0,1-.42.18,2.92,2.92,0,0,1-.54.05,5.17,5.17,0,0,1-.57,0A3.45,3.45,0,0,1,83,22.67Zm1.16-.31a1,1,0,0,0,.55-.14.48.48,0,0,0,.19-.43.62.62,0,0,0,0-.25.58.58,0,0,0-.17-.18.7.7,0,0,0-.23-.1,1.36,1.36,0,0,0-.29,0h-.33l-.28,0v1h.61Z"/><path class="cls-1" d="M87.16,21h.67A1.6,1.6,0,0,1,88,20.4a1.33,1.33,0,0,1,.3-.42,1.22,1.22,0,0,1,.41-.27,1.33,1.33,0,0,1,1.06,0,1.28,1.28,0,0,1,.45.32,1.58,1.58,0,0,1,.29.51,2.2,2.2,0,0,1,0,1.31,1.69,1.69,0,0,1-.29.51,1.42,1.42,0,0,1-.45.32,1.26,1.26,0,0,1-.55.11,1.31,1.31,0,0,1-.95-.38A1.77,1.77,0,0,1,88,22a2.21,2.21,0,0,1-.14-.59h-.66v1.35h-.54v-3h.54Zm2.88.26a1.37,1.37,0,0,0-.22-.82.73.73,0,0,0-.61-.3.72.72,0,0,0-.61.3,1.37,1.37,0,0,0-.22.82,1.33,1.33,0,0,0,.22.82.72.72,0,0,0,.61.3.73.73,0,0,0,.61-.3A1.33,1.33,0,0,0,90,21.21Z"/><path class="cls-1" d="M8,13l-7.26-3C.32,9.78-.08,9.63,0,9.09a1.88,1.88,0,0,1,.24-.18C5.48,6.73,10.69,4.56,15.9,2.36a3.41,3.41,0,0,1,2.81.24C21.58,3.8,24.46,5,27.32,6.19c2.24.95,4.47,1.93,6.7,2.9.12.61-.37.72-.77.9-2.43,1.09-2.43,1.09-2.28,3.76a1.33,1.33,0,0,0,.24.75c.7,1,.44,2.22.48,3.31,0,.78-1.07.74-1.78.62s-1-.45-1-1.33c.15-1.72,1-3.31.79-5.08,0-.14,0-.27,0-.51L26.08,13a8.31,8.31,0,0,1,0-1.22c.29-2.89-1-3.5-3-4.26a18.9,18.9,0,0,0-8.58-.77A11.83,11.83,0,0,0,9.79,8,2.85,2.85,0,0,0,8,11,15.72,15.72,0,0,1,8,13Z"/><path class="cls-2" d="M8,16.53c1.24-2.75,5.3-3,7.34-1.59a2.45,2.45,0,0,0,3.32,0,5.69,5.69,0,0,1,5.45-.29A3.71,3.71,0,0,1,26,16.53a4,4,0,0,1-1.92,4.1,22.38,22.38,0,0,1-6.43,3.25,2,2,0,0,1-1.29,0A22.38,22.38,0,0,1,10,20.63,4,4,0,0,1,8,16.53Z"/><path class="cls-1" d="M34,8.47c-2.72-1.18-4.86-2.11-6.7-2.89-2.86-1.22-5.74-2.4-8.61-3.6a3.41,3.41,0,0,0-2.81-.23Q8.08,5,.27,8.29A1.88,1.88,0,0,0,0,8.47c0-2-.27-1.58,1.51-2.32q7-2.9,13.9-5.82a4,4,0,0,1,3.17,0q6.95,2.91,13.9,5.82C34.29,6.89,34.06,6.49,34,8.47Z"/></svg>